<svg width="14" height="12" viewBox="0 0 14 12" fill="none" xmlns="http://www.w3.org/2000/svg">
<path fill-rule="evenodd" clip-rule="evenodd" d="M11.3313 2.5H13.125V3.375H11.3313C11.1125 4.38125 10.2375 5.125 9.1875 5.125C8.1375 5.125 7.2625 4.38125 7.04375 3.375H0.875V2.5H7.04375C7.2625 1.49375 8.1375 0.75 9.1875 0.75C10.2375 0.75 11.1125 1.49375 11.3313 2.5ZM7.875 2.9375C7.875 3.68125 8.44375 4.25 9.1875 4.25C9.93125 4.25 10.5 3.68125 10.5 2.9375C10.5 2.19375 9.93125 1.625 9.1875 1.625C8.44375 1.625 7.875 2.19375 7.875 2.9375ZM2.66875 9.5H0.875V8.625H2.66875C2.8875 7.61875 3.7625 6.875 4.8125 6.875C5.8625 6.875 6.7375 7.61875 6.95625 8.625H13.125V9.5H6.95625C6.7375 10.5063 5.8625 11.25 4.8125 11.25C3.7625 11.25 2.8875 10.5063 2.66875 9.5ZM6.125 9.0625C6.125 8.31875 5.55625 7.75 4.8125 7.75C4.06875 7.75 3.5 8.31875 3.5 9.0625C3.5 9.80625 4.06875 10.375 4.8125 10.375C5.55625 10.375 6.125 9.80625 6.125 9.0625Z" fill="#CBCBD7"/>
</svg>
