<svg width="24" height="24" viewBox="0 0 24 24" fill="none" xmlns="http://www.w3.org/2000/svg">
<g clip-path="url(#clip0_5694_63239)">
<path fill-rule="evenodd" clip-rule="evenodd" d="M8.59713 17.0928C9.60439 17.7658 10.7886 18.125 12 18.125C13.6239 18.1232 15.1807 17.4773 16.329 16.329C17.4773 15.1807 18.1232 13.6239 18.125 12C18.125 10.7886 17.7658 9.60439 17.0928 8.59713C16.4197 7.58988 15.4631 6.80483 14.3439 6.34124C13.2247 5.87765 11.9932 5.75636 10.8051 5.99269C9.61694 6.22903 8.52557 6.81238 7.66897 7.66897C6.81238 8.52557 6.22903 9.61694 5.99269 10.8051C5.75636 11.9932 5.87765 13.2247 6.34124 14.3439C6.80483 15.4631 7.58988 16.4197 8.59713 17.0928ZM9.08326 7.63479C9.94662 7.05791 10.9617 6.75 12 6.75C13.3919 6.75159 14.7263 7.30522 15.7106 8.28944C16.6948 9.27367 17.2484 10.6081 17.25 12C17.25 13.0384 16.9421 14.0534 16.3652 14.9167C15.7883 15.7801 14.9684 16.453 14.0091 16.8504C13.0498 17.2477 11.9942 17.3517 10.9758 17.1491C9.95738 16.9466 9.02192 16.4465 8.28769 15.7123C7.55347 14.9781 7.05345 14.0426 6.85088 13.0242C6.64831 12.0058 6.75228 10.9502 7.14964 9.99091C7.547 9.0316 8.2199 8.21166 9.08326 7.63479ZM12.6256 9.10944L12 8.5L8.5 12L12 15.5L12.6256 14.8757L10.1844 12.4375H15.5V11.5625H10.1844L12.6256 9.10944Z" fill="#CBCBD7"/>
</g>
<rect x="0.5" y="0.5" width="23" height="23" rx="7.5" stroke="#303067"/>
<defs>
<clipPath id="clip0_5694_63239">
<rect width="14" height="14" fill="white" transform="translate(5 5)"/>
</clipPath>
</defs>
</svg>

