<svg width="12" height="12" viewBox="0 0 12 12" fill="none" xmlns="http://www.w3.org/2000/svg">
<path d="M2.76923 0.51282C4.01025 0.51282 5.02564 1.5282 5.02564 2.76923C5.02564 4.01025 4.01025 5.02564 2.76923 5.02564C1.5282 5.02564 0.51282 4.01025 0.51282 2.76923C0.51282 1.5282 1.5282 0.51282 2.76923 0.51282ZM2.76923 0C1.24102 0 0 1.24103 0 2.76923C0 4.29743 1.24102 5.53846 2.76923 5.53846C4.29743 5.53846 5.53846 4.29743 5.53846 2.76923C5.53846 1.24103 4.29743 0 2.76923 0Z" fill="#CBCBD7"/>
<path d="M9.23065 6.97449C10.4717 6.97449 11.4871 7.98988 11.4871 9.2309C11.4871 10.4719 10.4717 11.4873 9.23065 11.4873C7.98963 11.4873 6.97425 10.4719 6.97425 9.2309C6.97425 7.98988 7.98963 6.97449 9.23065 6.97449ZM9.23065 6.46167C7.70245 6.46167 6.46143 7.7027 6.46143 9.2309C6.46143 10.7591 7.70245 12.0001 9.23065 12.0001C10.7589 12.0001 11.9999 10.7591 11.9999 9.2309C11.9999 7.7027 10.7589 6.46167 9.23065 6.46167Z" fill="#CBCBD7"/>
<path d="M6.46143 0L11.9999 5.53846H6.46143V0Z" fill="#CBCBD7"/>
<path d="M5.53846 6.46167H0V12.0001H5.53846V6.46167Z" fill="#CBCBD7"/>
</svg>
