<svg width="15" height="14" viewBox="0 0 15 14" fill="none" xmlns="http://www.w3.org/2000/svg">
<path d="M7.5 0C6.11553 0 4.76216 0.410543 3.61101 1.17971C2.45987 1.94888 1.56266 3.04213 1.03285 4.32122C0.503033 5.6003 0.36441 7.00776 0.634506 8.36563C0.904603 9.7235 1.57129 10.9708 2.55026 11.9497C3.52922 12.9287 4.7765 13.5954 6.13437 13.8655C7.49224 14.1356 8.8997 13.997 10.1788 13.4672C11.4579 12.9373 12.5511 12.0401 13.3203 10.889C14.0895 9.73785 14.5 8.38447 14.5 7C14.5 5.14348 13.7625 3.36301 12.4497 2.05025C11.137 0.737498 9.35652 0 7.5 0ZM10.5 9C10.5 9.26522 10.3946 9.51957 10.2071 9.70711C10.0196 9.89464 9.76522 10 9.5 10H5.5C5.23479 10 4.98043 9.89464 4.7929 9.70711C4.60536 9.51957 4.5 9.26522 4.5 9V5C4.5 4.73478 4.60536 4.48043 4.7929 4.29289C4.98043 4.10536 5.23479 4 5.5 4H9.5C9.76522 4 10.0196 4.10536 10.2071 4.29289C10.3946 4.48043 10.5 4.73478 10.5 5V9Z" fill="#FF6464"/>
</svg>
