<svg width="12" height="12" viewBox="0 0 12 12" fill="none" xmlns="http://www.w3.org/2000/svg">
<mask id="path-1-outside-1_3197_4970" maskUnits="userSpaceOnUse" x="-1.25049" y="-1.25049" width="14" height="14" fill="black">
<rect fill="white" x="-1.25049" y="-1.25049" width="14" height="14"/>
<path fill-rule="evenodd" clip-rule="evenodd" d="M4.38745 1.01245L4.61245 1.72495C5.0595 1.57444 5.52825 1.49843 5.99995 1.49995V0.749948C5.45124 0.742462 4.90546 0.831309 4.38745 1.01245ZM1.76245 2.92495C2.07824 2.48424 2.45732 2.09252 2.88745 1.76245L3.33745 2.36245C2.96615 2.65208 2.63787 2.99299 2.36245 3.37495L1.76245 2.92495ZM1.01245 4.38745L1.72495 4.61245C1.57444 5.0595 1.49843 5.52825 1.49995 5.99995H0.749948C0.742462 5.45124 0.831309 4.90546 1.01245 4.38745ZM1.01245 7.64994C1.18636 8.17286 1.43929 8.66607 1.76245 9.11244L2.36245 8.66244C2.09136 8.28286 1.87663 7.86604 1.72495 7.42494L1.01245 7.64994ZM4.38744 10.9875C3.86453 10.8135 3.37132 10.5606 2.92494 10.2375L3.37494 9.63745C3.75452 9.90855 4.17134 10.1233 4.61244 10.275L4.38744 10.9875ZM10.2374 9.07495C9.90824 9.51666 9.51666 9.90824 9.07495 10.2374L8.62495 9.63745C9.01637 9.35857 9.35857 9.01637 9.63745 8.62495L10.2374 9.07495ZM10.2749 7.38745L10.9874 7.61245C11.1506 7.09002 11.2389 6.54714 11.2499 5.99995H10.4999C10.5015 6.47165 10.4255 6.9404 10.2749 7.38745ZM10.1999 2.88745C10.5231 3.33383 10.776 3.82704 10.9499 4.34995L10.2374 4.57495C10.0858 4.13385 9.87104 3.71703 9.59995 3.33745L10.1999 2.88745ZM9.03745 1.72495C8.59107 1.40179 8.09786 1.14886 7.57495 0.974949L7.34995 1.68745C7.79105 1.83913 8.20787 2.05385 8.58745 2.32495L9.03745 1.72495ZM7.38745 10.275L7.61245 10.9875C7.08526 11.1295 6.54497 11.2175 5.99995 11.25V10.5C6.47165 10.5015 6.9404 10.4255 7.38745 10.275Z"/>
</mask>
<path d="M4.61245 1.72495L3.65887 2.02608L3.96574 2.99783L4.93152 2.67268L4.61245 1.72495ZM4.38745 1.01245L4.05737 0.0684966L3.14179 0.388659L3.43387 1.31358L4.38745 1.01245ZM5.99995 1.49995L5.99673 2.49994L6.99995 2.50318V1.49995H5.99995ZM5.99995 0.749948H6.99995V-0.236502L6.01359 -0.249959L5.99995 0.749948ZM2.88745 1.76245L3.68745 1.16245L3.0808 0.353582L2.27867 0.969115L2.88745 1.76245ZM1.76245 2.92495L0.949586 2.3425L0.379671 3.13787L1.16245 3.72495L1.76245 2.92495ZM3.33745 2.36245L3.9525 3.15094L4.72619 2.54743L4.13745 1.76245L3.33745 2.36245ZM2.36245 3.37495L1.76245 4.17495L2.57762 4.78633L3.17358 3.95982L2.36245 3.37495ZM1.72495 4.61245L2.67268 4.93152L2.99783 3.96574L2.02608 3.65887L1.72495 4.61245ZM1.01245 4.38745L1.31358 3.43387L0.388659 3.14179L0.0684965 4.05737L1.01245 4.38745ZM1.49995 5.99995V6.99995H2.50318L2.49994 5.99673L1.49995 5.99995ZM0.749948 5.99995L-0.249959 6.01359L-0.236502 6.99995H0.749948V5.99995ZM1.76245 9.11244L0.952443 9.69886L1.54884 10.5227L2.36245 9.91244L1.76245 9.11244ZM1.01245 7.64994L0.711319 6.69636L-0.256863 7.0021L0.0635539 7.96553L1.01245 7.64994ZM2.36245 8.66244L2.96245 9.46244L3.74402 8.87627L3.17622 8.08125L2.36245 8.66244ZM1.72495 7.42494L2.6706 7.09976L2.35356 6.17776L1.42382 6.47136L1.72495 7.42494ZM2.92494 10.2375L2.12494 9.63745L1.51473 10.4511L2.33852 11.0475L2.92494 10.2375ZM4.38744 10.9875L4.07186 11.9363L5.03528 12.2568L5.34102 11.2886L4.38744 10.9875ZM3.37494 9.63745L3.95613 8.82368L3.16112 8.25589L2.57494 9.03745L3.37494 9.63745ZM4.61244 10.275L5.56602 10.5761L5.85963 9.64634L4.93762 9.3293L4.61244 10.275ZM9.07495 10.2374L8.27495 10.8374L8.87314 11.635L9.67254 11.0393L9.07495 10.2374ZM10.2374 9.07495L11.0393 9.67254L11.635 8.87314L10.8374 8.27495L10.2374 9.07495ZM8.62495 9.63745L8.04469 8.82302L7.21009 9.41764L7.82495 10.2374L8.62495 9.63745ZM9.63745 8.62495L10.2374 7.82495L9.41764 7.21009L8.82302 8.04469L9.63745 8.62495ZM10.9874 7.61245L10.6863 8.56603L11.643 8.86813L11.942 7.9105L10.9874 7.61245ZM10.2749 7.38745L9.32721 7.06837L9.00206 8.03416L9.97381 8.34103L10.2749 7.38745ZM11.2499 5.99995L12.2497 6.02004L12.2702 4.99995H11.2499V5.99995ZM10.4999 5.99995V4.99995H9.49671L9.49995 6.00317L10.4999 5.99995ZM10.9499 4.34995L11.2511 5.30353L12.2193 4.99779L11.8988 4.03437L10.9499 4.34995ZM10.1999 2.88745L11.01 2.30103L10.4136 1.47724L9.59995 2.08745L10.1999 2.88745ZM10.2374 4.57495L9.2918 4.90013L9.60884 5.82213L10.5386 5.52853L10.2374 4.57495ZM9.59995 3.33745L8.99995 2.53745L8.21838 3.12362L8.78618 3.91864L9.59995 3.33745ZM7.57495 0.974949L7.89053 0.0260516L6.92711 -0.294365L6.62137 0.673817L7.57495 0.974949ZM9.03745 1.72495L9.83745 2.32495L10.4477 1.51134L9.62387 0.91494L9.03745 1.72495ZM7.34995 1.68745L6.39637 1.38632L6.10276 2.31606L7.02477 2.6331L7.34995 1.68745ZM8.58745 2.32495L8.00626 3.13872L8.80127 3.70651L9.38745 2.92495L8.58745 2.32495ZM7.61245 10.9875L7.87266 11.953L8.88028 11.6815L8.56603 10.6863L7.61245 10.9875ZM7.38745 10.275L8.34103 9.97383L8.03416 9.00207L7.06837 9.32723L7.38745 10.275ZM5.99995 11.25H4.99995V12.3113L6.05942 12.2482L5.99995 11.25ZM5.99995 10.5L6.00317 9.49996L4.99995 9.49673V10.5H5.99995ZM5.56603 1.42382L5.34103 0.711317L3.43387 1.31358L3.65887 2.02608L5.56603 1.42382ZM6.00318 0.499954C5.4219 0.498078 4.84427 0.591748 4.29338 0.777218L4.93152 2.67268C5.27473 2.55713 5.63459 2.49877 5.99673 2.49994L6.00318 0.499954ZM4.99995 0.749948V1.49995H6.99995V0.749948H4.99995ZM4.71753 1.9564C5.12512 1.81387 5.55456 1.74396 5.98631 1.74986L6.01359 -0.249959C5.34791 -0.25904 4.6858 -0.151255 4.05737 0.0684966L4.71753 1.9564ZM2.27867 0.969115C1.77051 1.35906 1.32266 1.82183 0.949586 2.3425L2.57532 3.5074C2.83382 3.14664 3.14413 2.82598 3.49623 2.55579L2.27867 0.969115ZM4.13745 1.76245L3.68745 1.16245L2.08745 2.36245L2.53745 2.96245L4.13745 1.76245ZM3.17358 3.95982C3.39361 3.65467 3.65587 3.38232 3.9525 3.15094L2.7224 1.57396C2.27643 1.92184 1.88213 2.3313 1.55132 2.79008L3.17358 3.95982ZM1.16245 3.72495L1.76245 4.17495L2.96245 2.57495L2.36245 2.12495L1.16245 3.72495ZM2.02608 3.65887L1.31358 3.43387L0.711317 5.34103L1.42382 5.56603L2.02608 3.65887ZM2.49994 5.99673C2.49877 5.63459 2.55713 5.27473 2.67268 4.93152L0.777218 4.29338C0.591748 4.84427 0.498078 5.4219 0.499954 6.00318L2.49994 5.99673ZM0.749948 6.99995H1.49995V4.99995H0.749948V6.99995ZM0.0684965 4.05737C-0.151255 4.6858 -0.25904 5.34791 -0.249959 6.01359L1.74986 5.98631C1.74396 5.55456 1.81387 5.12512 1.9564 4.71753L0.0684965 4.05737ZM2.57246 8.52602C2.30914 8.16231 2.10305 7.76044 1.96135 7.33436L0.0635539 7.96553C0.26967 8.58528 0.569438 9.16982 0.952443 9.69886L2.57246 8.52602ZM1.76245 7.86244L1.16245 8.31244L2.36245 9.91244L2.96245 9.46244L1.76245 7.86244ZM0.779298 7.75012C0.962356 8.28247 1.2215 8.78553 1.54868 9.24363L3.17622 8.08125C2.96121 7.7802 2.7909 7.44961 2.6706 7.09976L0.779298 7.75012ZM1.31358 8.60353L2.02608 8.37852L1.42382 6.47136L0.711319 6.69636L1.31358 8.60353ZM2.33852 11.0475C2.86756 11.4305 3.45211 11.7302 4.07186 11.9363L4.70303 10.0386C4.27695 9.89685 3.87507 9.69076 3.51136 9.42744L2.33852 11.0475ZM2.57494 9.03745L2.12494 9.63745L3.72494 10.8375L4.17494 10.2375L2.57494 9.03745ZM4.93762 9.3293C4.58778 9.209 4.25719 9.0387 3.95613 8.82368L2.79375 10.4512C3.25186 10.7784 3.75491 11.0375 4.28727 11.2206L4.93762 9.3293ZM5.34102 11.2886L5.56602 10.5761L3.65886 9.97382L3.43386 10.6863L5.34102 11.2886ZM9.67254 11.0393C10.1918 10.6522 10.6522 10.1918 11.0393 9.67254L9.43564 8.47736C9.16427 8.84147 8.84147 9.16427 8.47736 9.43564L9.67254 11.0393ZM7.82495 10.2374L8.27495 10.8374L9.87495 9.63745L9.42495 9.03745L7.82495 10.2374ZM8.82302 8.04469C8.60863 8.34559 8.34559 8.60863 8.04469 8.82302L9.20521 10.4519C9.68716 10.1085 10.1085 9.68716 10.4519 9.20521L8.82302 8.04469ZM10.8374 8.27495L10.2374 7.82495L9.03745 9.42495L9.63745 9.87495L10.8374 8.27495ZM11.2886 6.65886L10.5761 6.43386L9.97381 8.34103L10.6863 8.56603L11.2886 6.65886ZM10.2501 5.97985C10.241 6.43272 10.1679 6.88202 10.0329 7.31439L11.942 7.9105C12.1332 7.29802 12.2368 6.66156 12.2497 6.02004L10.2501 5.97985ZM10.4999 6.99995H11.2499V4.99995H10.4999V6.99995ZM11.2227 7.70652C11.4081 7.15563 11.5018 6.578 11.4999 5.99672L9.49995 6.00317C9.50112 6.3653 9.44276 6.72517 9.32721 7.06837L11.2227 7.70652ZM11.8988 4.03437C11.6927 3.41462 11.393 2.83007 11.01 2.30103L9.38994 3.47387C9.65326 3.83758 9.85935 4.23946 10.0011 4.66554L11.8988 4.03437ZM10.5386 5.52853L11.2511 5.30353L10.6488 3.39637L9.93632 3.62137L10.5386 5.52853ZM8.78618 3.91864C9.00119 4.21969 9.1715 4.55028 9.2918 4.90013L11.1831 4.24977C11 3.71742 10.7409 3.21437 10.4137 2.75626L8.78618 3.91864ZM9.59995 2.08745L8.99995 2.53745L10.1999 4.13745L10.7999 3.68745L9.59995 2.08745ZM7.25936 1.92385C7.68544 2.06555 8.08732 2.27164 8.45103 2.53496L9.62387 0.91494C9.09483 0.531936 8.51028 0.232168 7.89053 0.0260516L7.25936 1.92385ZM8.30353 1.98858L8.52853 1.27608L6.62137 0.673817L6.39637 1.38632L8.30353 1.98858ZM9.16864 1.51118C8.71053 1.184 8.20748 0.924854 7.67513 0.741796L7.02477 2.6331C7.37462 2.7534 7.7052 2.92371 8.00626 3.13872L9.16864 1.51118ZM8.23745 1.12495L7.78745 1.72495L9.38745 2.92495L9.83745 2.32495L8.23745 1.12495ZM8.56603 10.6863L8.34103 9.97383L6.43386 10.5761L6.65886 11.2886L8.56603 10.6863ZM6.05942 12.2482C6.67229 12.2117 7.27985 12.1128 7.87266 11.953L7.35223 10.0219C6.89068 10.1463 6.41765 10.2233 5.94048 10.2517L6.05942 12.2482ZM4.99995 10.5V11.25H6.99995V10.5H4.99995ZM7.06837 9.32723C6.72517 9.44277 6.36531 9.50113 6.00317 9.49996L5.99672 11.5C6.57799 11.5018 7.15563 11.4082 7.70652 11.2227L7.06837 9.32723Z" fill="#1C1C46" mask="url(#path-1-outside-1_3197_4970)"/>
</svg>
