<svg width="42" height="41" viewBox="0 0 42 41" fill="none" xmlns="http://www.w3.org/2000/svg">
<path fill-rule="evenodd" clip-rule="evenodd" d="M29.9688 28.1873H30.6094C32.664 28.1743 34.6413 27.4023 36.1611 26.0196C37.6809 24.6369 38.6359 22.7412 38.8425 20.697C39.0492 18.6528 38.4929 16.6043 37.2805 14.9454C36.0682 13.2866 34.2854 12.1344 32.275 11.7105C31.7219 9.1307 30.3008 6.81863 28.2489 5.16004C26.197 3.50146 23.6384 2.59668 21 2.59668C18.3616 2.59668 15.803 3.50146 13.7511 5.16004C11.6992 6.81863 10.2781 9.1307 9.725 11.7105C7.71457 12.1344 5.93181 13.2866 4.71948 14.9454C3.50715 16.6043 2.95083 18.6528 3.15748 20.697C3.36413 22.7412 4.31916 24.6369 5.83895 26.0196C7.35875 27.4023 9.33602 28.1743 11.3906 28.1873H12.0313V25.6248H11.3906C9.86149 25.686 8.37068 25.1372 7.24617 24.0992C6.12165 23.0612 5.45554 21.619 5.39438 20.0898C5.33321 18.5607 5.882 17.0699 6.92001 15.9454C7.95803 14.8209 9.40024 14.1548 10.9294 14.0936H12.0313L12.0569 13.043C12.3411 10.8859 13.3998 8.90574 15.0357 7.47131C16.6715 6.03687 18.7731 5.24599 20.9488 5.24599C23.1245 5.24599 25.226 6.03687 26.8618 7.47131C28.4977 8.90574 29.5564 10.8859 29.8406 13.043L29.9688 14.0936H31.0706C32.5998 14.1548 34.042 14.8209 35.08 15.9454C36.118 17.0699 36.6668 18.5607 36.6056 20.0898C36.5445 21.619 35.8784 23.0612 34.7538 24.0992C33.6293 25.1372 32.1385 25.686 30.6094 25.6248H29.9688V28.1873ZM16.4003 24.8689L14.5938 23.0623L21 16.6561L27.4063 23.0623L25.5997 24.8689L22.2813 21.5633V37.1561H19.7188V21.5633L16.4003 24.8689Z" fill="#CBCBD7"/>
</svg>
