<svg width="14" height="14" viewBox="0 0 14 14" fill="none" xmlns="http://www.w3.org/2000/svg">
<path fill-rule="evenodd" clip-rule="evenodd" d="M1.75 7.875H2.625V1.75H8.75V0.875H2.625C2.14375 0.875 1.75 1.26875 1.75 1.75V7.875ZM9.31875 3.7625L11.9875 6.43125C12.1625 6.60625 12.25 6.825 12.25 7.04375V12.25C12.25 12.7312 11.8562 13.125 11.375 13.125H5.25C4.76875 13.125 4.375 12.7312 4.375 12.25V4.375C4.375 3.89375 4.76875 3.5 5.25 3.5H8.75C8.96875 3.5 9.1875 3.5875 9.31875 3.7625ZM11.3312 7L8.75 4.375V7H11.3312ZM5.25 4.375V12.25H11.375V7.875H8.75C8.26875 7.875 7.875 7.48125 7.875 7V4.375H5.25Z" fill="#CBCBD7"/>
</svg>

