<svg width="14" height="14" viewBox="0 0 14 14" fill="none" xmlns="http://www.w3.org/2000/svg">
<g clip-path="url(#clip0_841_5878)">
<path fill-rule="evenodd" clip-rule="evenodd" d="M12.5063 2.1875L13.125 2.80617L11.5459 4.38524C12.1238 5.38452 12.3557 6.54667 12.2054 7.69123C12.0552 8.83579 11.5313 9.89872 10.715 10.715C9.89872 11.5313 8.83579 12.0552 7.69123 12.2054C6.54667 12.3557 5.38452 12.1238 4.38524 11.5459L2.80617 13.125L2.1875 12.5063L3.65313 11.0409C3.40083 10.8316 3.16855 10.5992 2.95929 10.3469L1.49367 11.8125L0.875 11.1938L2.45411 9.61476C1.87617 8.61548 1.64432 7.45333 1.79456 6.30877C1.94481 5.16421 2.46874 4.10128 3.28501 3.28501C4.10128 2.46874 5.16421 1.94481 6.30877 1.79456C7.45333 1.64432 8.61548 1.87617 9.61476 2.45411L11.1938 0.875L11.8125 1.49367L10.3469 2.95912C10.5992 3.16844 10.8315 3.40077 11.0407 3.65313L12.5063 2.1875ZM4.56938 10.6377C5.28885 11.1184 6.13471 11.375 7 11.375C8.15992 11.3737 9.27195 10.9123 10.0921 10.0921C10.9123 9.27195 11.3737 8.15992 11.375 7C11.375 6.13471 11.1184 5.28885 10.6377 4.56938C10.1569 3.84992 9.47367 3.28916 8.67424 2.95803C7.87481 2.62689 6.99515 2.54025 6.14648 2.70906C5.29781 2.87787 4.51826 3.29455 3.90641 3.90641C3.29455 4.51826 2.87787 5.29781 2.70906 6.14648C2.54025 6.99515 2.62689 7.87481 2.95803 8.67424C3.28916 9.47367 3.84992 10.1569 4.56938 10.6377ZM9.625 5.6875H4.375V6.5625H9.625V5.6875ZM9.625 7.875H4.375V8.75H9.625V7.875Z" fill="#6473FF"/>
</g>
<defs>
<clipPath id="clip0_841_5878">
<rect width="14" height="14" fill="white"/>
</clipPath>
</defs>
</svg>
