<svg width="20" height="20" viewBox="0 0 20 20" fill="none" xmlns="http://www.w3.org/2000/svg">
<path fill-rule="evenodd" clip-rule="evenodd" d="M3.75 2.5061H16.25C16.5815 2.5061 16.8995 2.6378 17.1339 2.87222C17.3683 3.10664 17.5 3.42458 17.5 3.7561V16.2561C17.5 16.5876 17.3683 16.9056 17.1339 17.14C16.8995 17.3744 16.5815 17.5061 16.25 17.5061H3.75C3.41848 17.5061 3.10054 17.3744 2.86612 17.14C2.6317 16.9056 2.5 16.5876 2.5 16.2561V3.7561C2.5 3.42458 2.6317 3.10664 2.86612 2.87222C3.10054 2.6378 3.41848 2.5061 3.75 2.5061ZM16.25 6.2561V3.7561H3.75V6.2561H16.25ZM3.75 7.5061V16.2561H16.25V7.5061H3.75ZM8.4875 11.8813L6.725 10.1125L7.60625 9.23126L10.2562 11.8813L7.60625 14.5313L6.725 13.65L8.4875 11.8813Z" fill="#CBCBD7"/>
</svg>

