<svg width="12" height="12" viewBox="0 0 12 12" fill="none" xmlns="http://www.w3.org/2000/svg">
<path fill-rule="evenodd" clip-rule="evenodd" d="M1.1875 0.3125H10.8125C11.0445 0.312789 11.2669 0.40507 11.4309 0.569101C11.5949 0.733133 11.6872 0.955524 11.6875 1.1875V10.8125C11.6872 11.0445 11.5949 11.2669 11.4309 11.4309C11.2669 11.5949 11.0445 11.6872 10.8125 11.6875H1.1875C0.955524 11.6872 0.733133 11.5949 0.569101 11.4309C0.40507 11.2669 0.312789 11.0445 0.3125 10.8125V1.1875C0.312789 0.955524 0.40507 0.733133 0.569101 0.569101C0.733133 0.40507 0.955524 0.312789 1.1875 0.3125ZM10.8125 2.9375V1.1875H1.1875V2.9375H10.8125ZM1.1875 3.8125V10.8125H10.8125V3.8125H1.1875ZM2.5 5.125H4.25V6H2.5V5.125ZM4.25 6.875H2.5V7.75H4.25V6.875ZM6.875 6.875H5.125V7.75H6.875V6.875ZM6.875 8.625H5.125V9.5H6.875V8.625ZM7.75 5.125H9.5V6H7.75V5.125ZM9.5 8.625H7.75V9.5H9.5V8.625Z" fill="#CBCBD7"/>
</svg>
