<svg width="14" height="14" viewBox="0 0 14 14" fill="none" xmlns="http://www.w3.org/2000/svg">
<g clip-path="url(#clip0_4328_368)">
<path fill-rule="evenodd" clip-rule="evenodd" d="M9.59299 4.20744C9.61565 4.26031 9.62657 4.31747 9.625 4.37497V6.12497H8.75V5.24997H6.125C5.89315 5.24929 5.67098 5.15688 5.50703 4.99293C5.34309 4.82899 5.25068 4.60682 5.25 4.37497V1.74997H1.75V12.25H8.75V13.125H1.75C1.51794 13.125 1.29538 13.0328 1.13128 12.8687C0.967187 12.7046 0.875 12.482 0.875 12.25V1.74997C0.875681 1.51811 0.968087 1.29595 1.13203 1.132C1.29598 0.968054 1.51815 0.875648 1.75 0.874967H6.125C6.1825 0.873385 6.23966 0.884301 6.29254 0.906961C6.34541 0.929621 6.39274 0.963486 6.43125 1.00622L9.49375 4.06872C9.53647 4.10724 9.57033 4.15457 9.59299 4.20744ZM6.125 1.92497V4.37497H8.575L6.125 1.92497ZM4.8125 6.99998H2.625V11.375H3.5V10.0625H4.8125C5.04447 10.0622 5.26685 9.96988 5.43087 9.80585C5.5949 9.64182 5.68719 9.41945 5.6875 9.18748V7.87498C5.68723 7.64299 5.59496 7.42059 5.43092 7.25655C5.26689 7.09252 5.04448 7.00024 4.8125 6.99998ZM3.5 9.18748V7.87498H4.8125L4.81294 9.18748H3.5ZM8.3125 11.375C8.66048 11.3746 8.9941 11.2362 9.24016 10.9901C9.48621 10.7441 9.62462 10.4105 9.625 10.0625V8.31248C9.62462 7.9645 9.48621 7.63088 9.24016 7.38482C8.9941 7.13876 8.66048 7.00036 8.3125 6.99998H6.5625V11.375H8.3125ZM8.3125 10.5H7.4375V7.87498H8.3125C8.42849 7.8751 8.5397 7.92124 8.62172 8.00326C8.70374 8.08528 8.74987 8.19648 8.75 8.31248V10.0625C8.74987 10.1785 8.70374 10.2897 8.62172 10.3717C8.5397 10.4537 8.42849 10.4998 8.3125 10.5ZM13.125 6.99998V7.87498H11.375V8.74998H12.6875V9.62498H11.375V11.375H10.5V6.99998H13.125Z" fill="#CBCBD7"/>
</g>
<defs>
<clipPath id="clip0_4328_368">
<rect width="14" height="14" fill="white"/>
</clipPath>
</defs>
</svg>
