<svg width="12" height="12" viewBox="0 0 12 12" fill="none" xmlns="http://www.w3.org/2000/svg">
<path d="M6.0001 0.250092C5.24433 0.245815 4.49521 0.391414 3.79605 0.67848C3.09593 0.965938 2.45985 1.38953 1.92469 1.92469C1.38953 2.45985 0.965938 3.09593 0.67848 3.79605C0.391414 4.49521 0.245815 5.24433 0.250092 6.0001C0.245815 6.75587 0.391414 7.50499 0.67848 8.20415C0.965938 8.90427 1.38953 9.54035 1.92469 10.0755L2.27824 9.72196L1.92469 10.0755C2.45985 10.6107 3.09593 11.0343 3.79605 11.3217C4.49521 11.6088 5.24433 11.7544 6.0001 11.7501C6.75587 11.7544 7.50499 11.6088 8.20415 11.3217C8.90427 11.0343 9.54035 10.6107 10.0755 10.0755C10.6107 9.54035 11.0343 8.90427 11.3217 8.20415C11.6088 7.50499 11.7544 6.75587 11.7501 6.0001C11.7544 5.24433 11.6088 4.49521 11.3217 3.79605C11.0343 3.09593 10.6107 2.45985 10.0755 1.92469L9.72196 2.27824L10.0755 1.92469C9.54035 1.38953 8.90427 0.965938 8.20415 0.67848C7.50499 0.391414 6.75587 0.245815 6.0001 0.250092Z" fill="#FF6464" stroke="#08081A"/>
</svg>
