<svg width="20" height="20" viewBox="0 0 20 20" fill="none" xmlns="http://www.w3.org/2000/svg">
<path fill-rule="evenodd" clip-rule="evenodd" d="M11.875 2.50001V3.75001H8.69581L8.29806 8.12501H11.25V9.37501H8.1845L7.54912 16.3633C7.52217 16.6744 7.37918 16.9641 7.14854 17.1746C6.91791 17.3852 6.6165 17.5014 6.30419 17.5H3.125V16.25H6.30419L6.92919 9.37501H4.375V8.12501H7.04288L7.45088 3.63676C7.47783 3.32561 7.62082 3.03597 7.85146 2.82538C8.08209 2.61479 8.3835 2.49864 8.69581 2.50001H11.875ZM15 11.25H16.25L14.4362 14.375L16.25 17.5H15L13.75 15.1256L12.5 17.5H11.25L13.0656 14.375L11.25 11.25H12.5L13.75 13.6856L15 11.25Z" fill="#55D899"/>
</svg>
