<svg width="82" height="82" viewBox="0 0 82 82" fill="none" xmlns="http://www.w3.org/2000/svg">
<g clip-path="url(#clip0_2107_49101)">
<rect width="82" height="82" rx="10" fill="url(#paint0_linear_2107_49101)"/>
<g opacity="0.7" clip-path="url(#clip1_2107_49101)">
<path d="M41.0207 49.5258C41.0279 49.6586 41.0358 49.7921 41.0494 49.9249C41.0613 50.0402 41.0772 50.1555 41.0931 50.2716C41.1114 50.4044 41.1313 50.5364 41.1552 50.6684C41.1767 50.7853 41.2022 50.9014 41.2285 51.0175C41.2571 51.1464 41.2882 51.2752 41.3224 51.404C41.3534 51.5201 41.3885 51.6362 41.4243 51.7523C41.4641 51.8803 41.5063 52.0083 41.5517 52.1364C41.5923 52.2501 41.6352 52.3638 41.6806 52.4767C41.734 52.6103 41.7905 52.7447 41.8502 52.8775C41.9003 52.9896 41.9521 53.1009 42.0062 53.2123C42.0707 53.3443 42.1399 53.4763 42.2108 53.6075C42.2689 53.7148 42.3278 53.8222 42.3899 53.9287C42.4814 54.0854 42.5794 54.242 42.6797 54.3971C42.741 54.4917 42.7999 54.5863 42.8643 54.6802C42.9822 54.8519 43.1087 55.0213 43.2377 55.1907C43.2942 55.2646 43.3467 55.3402 43.4049 55.4141C43.619 55.6837 43.8483 55.9501 44.091 56.2141C44.1531 56.2817 44.2208 56.3485 44.2853 56.4161C44.4771 56.6165 44.6761 56.8153 44.8847 57.0117C44.9802 57.1015 45.075 57.1914 45.1737 57.2804C45.2979 57.3926 45.426 57.5031 45.5558 57.6136C45.6752 57.7154 45.7962 57.8164 45.9204 57.9166C46.0557 58.0255 46.195 58.1337 46.3359 58.241C46.4649 58.3396 46.5946 58.4374 46.7284 58.5345C46.874 58.6402 47.0253 58.7452 47.1765 58.8494C47.315 58.9448 47.4543 59.0402 47.5984 59.1348C47.7553 59.2374 47.9161 59.3376 48.0784 59.4386C48.2806 59.5642 48.4805 59.6907 48.6914 59.8131C49.087 60.0429 49.4954 60.2608 49.9086 60.4723C50.0272 60.5336 50.1482 60.5924 50.2692 60.652C50.5924 60.8119 50.9203 60.9661 51.2531 61.1148C51.3637 61.1642 51.4736 61.2158 51.585 61.2643C52.0181 61.452 52.4583 61.6325 52.9065 61.8027C52.9845 61.8321 53.0641 61.8591 53.1421 61.8886C53.521 62.0293 53.9047 62.1637 54.2932 62.2917C54.4524 62.3442 54.6116 62.3959 54.7716 62.4468C54.985 62.5136 55.1999 62.5796 55.4156 62.6432C55.5979 62.6965 55.7802 62.749 55.9641 62.7999C56.183 62.8603 56.4027 62.9183 56.624 62.9756C56.8087 63.0233 56.9934 63.0702 57.1797 63.1155C57.4033 63.1696 57.6278 63.2205 57.8531 63.2706C58.0402 63.312 58.2265 63.3541 58.4151 63.3931C58.6452 63.4408 58.8768 63.4853 59.1085 63.5298C59.2852 63.5632 59.4611 63.5974 59.6386 63.6292C60.1346 63.7167 60.6337 63.7978 61.136 63.8678C61.2069 63.8773 61.2785 63.8853 61.3501 63.8948C61.7872 63.9537 62.2274 64.0062 62.6684 64.0515C62.8364 64.069 63.0043 64.0849 63.1731 64.1008C63.4565 64.127 63.7407 64.1509 64.0249 64.1716C64.2024 64.1843 64.3807 64.1978 64.559 64.2089C64.8567 64.2272 65.1544 64.2415 65.453 64.2535C65.6193 64.2606 65.7857 64.2694 65.9521 64.2741C66.2092 64.2821 66.4671 64.2853 66.725 64.2892C66.9058 64.2916 67.0865 64.2964 67.2672 64.2964C67.5418 64.2964 67.8164 64.2924 68.0911 64.2885C68.2471 64.2861 68.4031 64.2861 68.5591 64.2821C69.4022 64.2606 70.2444 64.2153 71.0818 64.1469C71.1017 64.1453 71.1216 64.1445 71.1423 64.1429C71.9981 64.0722 72.849 63.9775 73.692 63.8583C73.7525 63.8495 73.813 63.8392 73.8735 63.8296C74.2397 63.7764 74.6043 63.7199 74.9673 63.6571C75.117 63.6316 75.2642 63.6014 75.4123 63.5744C75.6861 63.5243 75.9592 63.4742 76.2306 63.4185C76.3723 63.3891 76.5124 63.3565 76.6541 63.3263C76.9527 63.2619 77.2504 63.1959 77.5449 63.1251C77.7089 63.0853 77.8721 63.0432 78.0353 63.0018C78.3035 62.9334 78.571 62.8635 78.8361 62.7903C78.9881 62.7482 79.1394 62.7044 79.2906 62.6599C79.711 62.5374 80.1273 62.4086 80.5381 62.2726C80.6121 62.248 80.6869 62.2257 80.7601 62.2011C81.2338 62.0405 81.6987 61.8695 82.158 61.6906C82.2559 61.6524 82.3522 61.6126 82.4494 61.5737C83.0464 61.3343 83.6331 61.0822 84.2023 60.8111C84.2596 60.784 84.3153 60.7538 84.3734 60.7268C84.9688 60.4381 85.5516 60.136 86.112 59.8131C91.3293 56.8041 93.9347 52.8544 93.9236 48.9111L93.9992 60.6163C94.0103 64.5596 91.4049 68.5093 86.1876 71.5183C85.6272 71.842 85.0445 72.1441 84.4482 72.4328C84.3909 72.4606 84.336 72.49 84.2787 72.5171C83.7095 72.7882 83.1228 73.0403 82.525 73.2797C82.4716 73.3011 82.4231 73.3258 82.3698 73.3473C82.3252 73.3647 82.279 73.3799 82.2344 73.3966C81.7751 73.5755 81.3094 73.7464 80.8358 73.9071C80.7625 73.9317 80.6877 73.954 80.6145 73.9786C80.2029 74.1154 79.7858 74.2442 79.3655 74.3667C79.2946 74.3874 79.227 74.4112 79.1561 74.4319C79.0757 74.455 78.9921 74.474 78.9109 74.4963C78.6458 74.5703 78.3784 74.6402 78.1101 74.7086C77.9469 74.75 77.7837 74.7921 77.6197 74.8319C77.3252 74.9026 77.0275 74.9686 76.7298 75.0323C76.6183 75.0561 76.5085 75.0847 76.3962 75.1078C76.366 75.1142 76.3357 75.1189 76.3055 75.1253C76.0348 75.181 75.7618 75.2303 75.4887 75.2804C75.3399 75.3074 75.1918 75.3376 75.0429 75.3639C74.6799 75.4267 74.3154 75.4831 73.9492 75.5364C73.8903 75.5452 73.8322 75.5555 73.7732 75.5642C73.7732 75.5642 73.7693 75.5642 73.7677 75.5642C72.9247 75.6835 72.0737 75.7781 71.2179 75.8489C71.2124 75.8489 71.2068 75.8505 71.2012 75.8505C71.1869 75.8513 71.1718 75.8513 71.1574 75.8529C70.32 75.9213 69.4778 75.9658 68.6348 75.9881C68.6212 75.9881 68.6085 75.9897 68.595 75.9905C68.4525 75.9936 68.3092 75.9928 68.1667 75.9944C67.8921 75.9984 67.6174 76.0032 67.342 76.0024C67.1613 76.0024 66.9806 75.9976 66.7999 75.9952C66.542 75.9913 66.2848 75.9881 66.0269 75.9801C65.9792 75.9785 65.9322 75.9793 65.8844 75.9777C65.765 75.9738 65.6464 75.965 65.5278 75.9594C65.2293 75.9467 64.9316 75.9332 64.6346 75.9149C64.4563 75.9038 64.278 75.8911 64.1005 75.8775C63.8163 75.8569 63.5321 75.833 63.2495 75.8068C63.15 75.7972 63.0505 75.7917 62.951 75.7821C62.8817 75.775 62.8133 75.7646 62.744 75.7575C62.303 75.7114 61.8636 75.6597 61.4266 75.6008C61.3549 75.5913 61.2833 75.5833 61.2116 75.5738C60.7093 75.503 60.2102 75.4227 59.7143 75.3352C59.6681 75.3273 59.6211 75.3217 59.575 75.313C59.4436 75.2891 59.3139 75.2605 59.1825 75.2358C58.9509 75.1921 58.72 75.1476 58.4899 75.0998C58.3013 75.0609 58.1142 75.0187 57.9271 74.9766C57.7019 74.9265 57.4774 74.8756 57.2545 74.8215C57.0682 74.7762 56.8827 74.7293 56.698 74.6816C56.4775 74.6243 56.2578 74.5663 56.0397 74.5058C55.8558 74.455 55.6727 74.4025 55.4904 74.3484C55.2747 74.2848 55.0606 74.2196 54.8472 74.1528C54.7541 74.1234 54.6586 74.0971 54.5654 74.0669C54.4986 74.0454 54.4341 74.02 54.368 73.9977C53.9803 73.8697 53.5966 73.7353 53.2185 73.5946C53.1397 73.5651 53.0593 73.5381 52.9813 73.5087C52.5331 73.3385 52.0937 73.158 51.6607 72.9703C51.5484 72.9218 51.4386 72.8701 51.3271 72.8208C50.9952 72.6721 50.6672 72.5179 50.3448 72.3588C50.2238 72.2992 50.1028 72.2396 49.9834 72.1783C49.5694 71.966 49.1619 71.7489 48.7662 71.5191C48.6572 71.4563 48.5497 71.3927 48.443 71.3283C48.3427 71.2678 48.2504 71.205 48.1525 71.1446C47.9909 71.0444 47.8293 70.9434 47.6733 70.8408C47.53 70.747 47.3907 70.6516 47.2514 70.5553C47.0993 70.4512 46.9489 70.3462 46.8032 70.2404C46.6694 70.1434 46.5397 70.0448 46.4107 69.9462C46.2698 69.8389 46.1305 69.7307 45.996 69.6218C45.8718 69.5216 45.7508 69.4198 45.6314 69.3188C45.5016 69.2083 45.3735 69.0978 45.2493 68.9856C45.1984 68.9395 45.1426 68.895 45.0925 68.8489C45.0455 68.8059 45.0065 68.7606 44.9603 68.7177C44.7518 68.5205 44.552 68.3217 44.3601 68.1213C44.2964 68.0545 44.2296 67.9885 44.1675 67.9209C43.9247 67.6577 43.6946 67.3905 43.4805 67.1209C43.4717 67.109 43.4598 67.0979 43.451 67.0867C43.4017 67.0247 43.3611 66.9603 43.3133 66.8975C43.1844 66.7281 43.0578 66.5587 42.94 66.387C42.8755 66.2931 42.8166 66.1977 42.7553 66.1039C42.655 65.948 42.5571 65.7929 42.4655 65.6355C42.4408 65.5926 42.4106 65.5504 42.3859 65.5075C42.3501 65.4439 42.3214 65.3787 42.2864 65.315C42.2156 65.183 42.1463 65.0518 42.0818 64.919C42.0277 64.8077 41.976 64.6964 41.9258 64.5851C41.8661 64.4515 41.8104 64.3187 41.757 64.1843C41.7332 64.1246 41.7037 64.065 41.6814 64.0054C41.6615 63.9513 41.6472 63.8972 41.6281 63.8431C41.5827 63.7159 41.5413 63.5887 41.5015 63.4607C41.4657 63.3446 41.4307 63.2285 41.3988 63.1116C41.3646 62.9835 41.3335 62.8547 41.3049 62.7259C41.289 62.6559 41.2683 62.5867 41.2539 62.5168C41.2444 62.4699 41.2404 62.4229 41.2316 62.376C41.207 62.244 41.1879 62.1128 41.1696 61.9808C41.1536 61.8647 41.1377 61.7494 41.1258 61.6333C41.1122 61.5005 41.1043 61.3677 41.0971 61.2349C41.0931 61.157 41.0828 61.0791 41.0804 61.0011C41.078 60.924 41.0772 60.8461 41.0764 60.7689L41 49.0606C41 49.2156 41.0119 49.3707 41.0207 49.5258Z" fill="url(#paint1_linear_2107_49101)"/>
<path d="M41.0207 49.3182C41.0279 49.451 41.0358 49.5846 41.0494 49.7174C41.0613 49.8327 41.0772 49.948 41.0931 50.0641C41.1114 50.1969 41.1313 50.3289 41.1552 50.4609C41.1767 50.5778 41.2022 50.6939 41.2285 50.81C41.2571 50.9388 41.2882 51.0676 41.3224 51.1964C41.3534 51.3125 41.3885 51.4286 41.4243 51.5447C41.4641 51.6728 41.5063 51.8008 41.5517 51.9288C41.5923 52.0425 41.6352 52.1562 41.6806 52.2692C41.734 52.4027 41.7905 52.5371 41.8502 52.6699C41.9003 52.7821 41.9521 52.8934 42.0062 53.0047C42.0707 53.1367 42.1399 53.2687 42.2108 53.3999C42.2689 53.5073 42.3278 53.6146 42.3899 53.7212C42.4814 53.8778 42.5794 54.0345 42.6797 54.1895C42.741 54.2842 42.7999 54.3788 42.8643 54.4726C42.9822 54.6444 43.1087 54.8138 43.2377 54.9831C43.2942 55.0571 43.3467 55.1326 43.4049 55.2066C43.619 55.4762 43.8483 55.7425 44.091 56.0065C44.1531 56.0741 44.2208 56.1409 44.2853 56.2085C44.4771 56.4089 44.6761 56.6077 44.8847 56.8041C44.9802 56.894 45.075 56.9838 45.1737 57.0729C45.2979 57.185 45.426 57.2955 45.5558 57.4061C45.6752 57.5079 45.7962 57.6089 45.9204 57.709C46.0557 57.818 46.195 57.9261 46.3359 58.0335C46.4649 58.1321 46.5946 58.2299 46.7284 58.3269C46.874 58.4327 47.0253 58.5376 47.1765 58.6418C47.315 58.7372 47.4543 58.8326 47.5984 58.9273C47.7553 59.0299 47.9161 59.13 48.0784 59.231C48.2806 59.3567 48.4805 59.4831 48.6914 59.6056C49.087 59.8354 49.4954 60.0533 49.9086 60.2648C50.0272 60.326 50.1482 60.3849 50.2692 60.4445C50.5924 60.6043 50.9203 60.7586 51.2531 60.9073C51.3637 60.9574 51.4736 61.0083 51.585 61.0568C52.0181 61.2445 52.4583 61.425 52.9065 61.5951C52.9845 61.6246 53.0641 61.6516 53.1421 61.681C53.521 61.8218 53.9047 61.9562 54.2932 62.0842C54.4524 62.1367 54.6116 62.1884 54.7716 62.2392C54.985 62.306 55.1999 62.372 55.4156 62.4357C55.5979 62.4889 55.7802 62.5414 55.9641 62.5923C56.183 62.6527 56.4027 62.7108 56.624 62.768C56.8087 62.8158 56.9934 62.8627 57.1797 62.908C57.4033 62.9621 57.6278 63.013 57.8531 63.0631C58.0402 63.1044 58.2265 63.1466 58.4151 63.1855C58.6452 63.2332 58.8768 63.2778 59.1085 63.3223C59.2852 63.3557 59.4611 63.3899 59.6386 63.4217C60.1346 63.5092 60.6337 63.5903 61.136 63.6602C61.2069 63.6706 61.2785 63.6777 61.3501 63.6873C61.7872 63.7461 62.2274 63.7986 62.6684 63.8439C62.8364 63.8614 63.0043 63.8773 63.1731 63.8932C63.4565 63.9195 63.7407 63.9433 64.0249 63.964C64.2024 63.9767 64.3807 63.9902 64.559 64.0014C64.8567 64.0197 65.1544 64.034 65.453 64.0459C65.6193 64.0531 65.7857 64.0618 65.9521 64.0666C66.2092 64.0745 66.4671 64.0777 66.725 64.0817C66.9058 64.0841 67.0865 64.0889 67.2672 64.0889C67.5418 64.0889 67.8164 64.0849 68.0911 64.0809C68.2471 64.0785 68.4031 64.0785 68.5591 64.0745C69.4022 64.0531 70.2444 64.0077 71.0818 63.9394C71.1017 63.9378 71.1216 63.937 71.1423 63.9354C71.9981 63.8646 72.849 63.77 73.692 63.6507C73.7525 63.642 73.813 63.6316 73.8735 63.6221C74.2397 63.5688 74.6043 63.5123 74.9673 63.4495C75.117 63.4241 75.2642 63.3939 75.4123 63.3668C75.6861 63.3167 75.9592 63.2666 76.2306 63.211C76.3723 63.1815 76.5124 63.1489 76.6541 63.1187C76.9527 63.0543 77.2504 62.9883 77.5449 62.9175C77.7089 62.8778 77.8721 62.8356 78.0353 62.7943C78.3035 62.7259 78.571 62.6559 78.8361 62.5828C78.9881 62.5406 79.1394 62.4969 79.2906 62.4524C79.711 62.3299 80.1273 62.2011 80.5381 62.0651C80.6121 62.0404 80.6869 62.0182 80.7601 61.9935C81.2338 61.8329 81.6987 61.6619 82.158 61.483C82.2559 61.4448 82.3522 61.4051 82.4494 61.3661C83.0464 61.1268 83.6331 60.8747 84.2023 60.6035C84.2596 60.5765 84.3153 60.5463 84.3734 60.5192C84.9688 60.2306 85.5516 59.9284 86.112 59.6056C91.3293 56.5966 93.9347 52.6469 93.9236 48.7035L93.9992 60.4087C94.0103 64.3521 91.4049 68.3018 86.1876 71.3108C85.6272 71.6344 85.0445 71.9366 84.4482 72.2252C84.3909 72.2531 84.336 72.2825 84.2787 72.3095C83.7095 72.5807 83.1228 72.8328 82.525 73.0721C82.4716 73.0936 82.4231 73.1182 82.3698 73.1397C82.3252 73.1572 82.279 73.1723 82.2344 73.189C81.7751 73.3679 81.3094 73.5389 80.8358 73.6995C80.7625 73.7242 80.6877 73.7464 80.6145 73.7711C80.2029 73.9079 79.7858 74.0367 79.3655 74.1591C79.2946 74.1798 79.227 74.2037 79.1561 74.2243C79.0757 74.2474 78.9921 74.2665 78.9109 74.2888C78.6458 74.3627 78.3784 74.4327 78.1101 74.5011C77.9469 74.5424 77.7837 74.5846 77.6197 74.6243C77.3252 74.6951 77.0275 74.7611 76.7298 74.8247C76.6183 74.8486 76.5085 74.8772 76.3962 74.9003C76.366 74.9066 76.3357 74.9114 76.3055 74.9177C76.0348 74.9734 75.7618 75.0227 75.4887 75.0728C75.3399 75.0998 75.1918 75.1301 75.0429 75.1563C74.6799 75.2191 74.3154 75.2756 73.9492 75.3289C73.8903 75.3376 73.8322 75.3479 73.7732 75.3567C73.7732 75.3567 73.7693 75.3567 73.7677 75.3567C72.9247 75.476 72.0737 75.5706 71.2179 75.6414C71.2124 75.6414 71.2068 75.643 71.2012 75.643C71.1869 75.6438 71.1718 75.6438 71.1574 75.6453C70.32 75.7137 69.4778 75.7583 68.6348 75.7805C68.6212 75.7805 68.6085 75.7821 68.595 75.7829C68.4525 75.7861 68.3092 75.7853 68.1667 75.7869C67.8921 75.7909 67.6174 75.7956 67.342 75.7948C67.1613 75.7948 66.9806 75.7901 66.7999 75.7877C66.542 75.7837 66.2848 75.7805 66.0269 75.7726C65.9792 75.771 65.9322 75.7718 65.8844 75.7702C65.765 75.7662 65.6464 75.7575 65.5278 75.7519C65.2293 75.7392 64.9316 75.7257 64.6346 75.7074C64.4563 75.6962 64.278 75.6835 64.1005 75.67C63.8163 75.6493 63.5321 75.6255 63.2495 75.5992C63.15 75.5897 63.0505 75.5841 62.951 75.5746C62.8817 75.5674 62.8133 75.5571 62.744 75.5499C62.303 75.5038 61.8636 75.4521 61.4266 75.3933C61.3549 75.3837 61.2833 75.3758 61.2116 75.3662C60.7093 75.2955 60.2102 75.2152 59.7143 75.1277C59.6681 75.1197 59.6211 75.1142 59.575 75.1054C59.4436 75.0816 59.3139 75.0529 59.1825 75.0283C58.9509 74.9845 58.72 74.94 58.4899 74.8923C58.3013 74.8533 58.1142 74.8112 57.9271 74.769C57.7019 74.719 57.4774 74.6681 57.2545 74.614C57.0682 74.5687 56.8827 74.5217 56.698 74.474C56.4775 74.4168 56.2578 74.3587 56.0397 74.2983C55.8558 74.2474 55.6727 74.1949 55.4904 74.1408C55.2747 74.0772 55.0606 74.012 54.8472 73.9452C54.7541 73.9158 54.6586 73.8896 54.5654 73.8594C54.4986 73.8379 54.4341 73.8124 54.368 73.7902C53.9803 73.6621 53.5966 73.5278 53.2185 73.387C53.1397 73.3576 53.0593 73.3305 52.9813 73.3011C52.5331 73.131 52.0937 72.9504 51.6607 72.7628C51.5484 72.7143 51.4386 72.6626 51.3271 72.6133C50.9952 72.4646 50.6672 72.3103 50.3448 72.1513C50.2238 72.0916 50.1028 72.032 49.9834 71.9708C49.5694 71.7585 49.1619 71.5414 48.7662 71.3116C48.6572 71.2487 48.5497 71.1851 48.443 71.1207C48.3427 71.0603 48.2504 70.9975 48.1525 70.937C47.9909 70.8368 47.8293 70.7358 47.6733 70.6333C47.53 70.5394 47.3907 70.444 47.2514 70.3478C47.0993 70.2436 46.9489 70.1387 46.8032 70.0329C46.6694 69.9359 46.5397 69.8373 46.4107 69.7387C46.2698 69.6313 46.1305 69.5232 45.996 69.4142C45.8718 69.314 45.7508 69.2123 45.6314 69.1105C45.5016 68.9999 45.3735 68.8894 45.2493 68.7773C45.1984 68.7312 45.1426 68.6866 45.0925 68.6405C45.0455 68.5976 45.0065 68.553 44.9603 68.5093C44.7518 68.3121 44.552 68.1133 44.3601 67.9121C44.2964 67.8453 44.2296 67.7793 44.1675 67.7117C43.9247 67.4485 43.6946 67.1813 43.4805 66.9118C43.4717 66.8999 43.4598 66.8887 43.451 66.8776C43.4017 66.8156 43.3611 66.7512 43.3133 66.6883C43.1844 66.519 43.0578 66.3496 42.94 66.1778C42.8755 66.084 42.8166 65.9886 42.7553 65.8947C42.655 65.7389 42.5571 65.5838 42.4655 65.4264C42.4408 65.3834 42.4106 65.3413 42.3859 65.2983C42.3501 65.2347 42.3214 65.1695 42.2864 65.1059C42.2156 64.9739 42.1463 64.8427 42.0818 64.7099C42.0277 64.5986 41.976 64.4872 41.9258 64.3759C41.8661 64.2423 41.8104 64.1095 41.757 63.9751C41.7332 63.9155 41.7037 63.8559 41.6814 63.7962C41.6615 63.7422 41.6472 63.6881 41.6281 63.634C41.5827 63.5068 41.5413 63.3795 41.5015 63.2515C41.4657 63.1354 41.4307 63.0193 41.3988 62.9024C41.3646 62.7744 41.3335 62.6456 41.3049 62.5168C41.289 62.4468 41.2683 62.3776 41.2539 62.3076C41.2444 62.2607 41.2404 62.2138 41.2316 62.1669C41.207 62.0349 41.1879 61.9037 41.1696 61.7717C41.1536 61.6556 41.1377 61.5403 41.1258 61.4242C41.1122 61.2914 41.1043 61.1586 41.0971 61.0258C41.0931 60.9479 41.0828 60.8699 41.0804 60.792C41.078 60.7149 41.0772 60.6369 41.0764 60.5598L41 48.8522C41 49.0073 41.0119 49.1623 41.0207 49.3174V49.3182Z" fill="url(#paint2_linear_2107_49101)"/>
<path d="M67.5038 64.088C82.118 64.0473 93.9459 57.1595 93.9223 48.7037C93.8986 40.2479 82.0324 33.4262 67.4182 33.467C52.804 33.5078 40.9761 40.3956 40.9997 48.8513C41.0233 57.3071 52.8896 64.1288 67.5038 64.088Z" fill="url(#paint3_linear_2107_49101)"/>
<path d="M50.2677 62.9366C50.5909 63.0965 50.9188 63.2507 51.2516 63.3994C51.3622 63.4487 51.4721 63.5004 51.5835 63.5489C52.0166 63.7366 52.4568 63.9171 52.905 64.0873C52.983 64.1167 53.0626 64.1437 53.1406 64.1732C53.5195 64.3139 53.9032 64.4483 54.2917 64.5763C54.4509 64.6288 54.6101 64.6805 54.7701 64.7314C54.9834 64.7982 55.1984 64.8642 55.4141 64.9278C55.5964 64.9811 55.7787 65.0336 55.9626 65.0844C56.1815 65.1449 56.4012 65.2029 56.6225 65.2602C56.8072 65.3079 56.9919 65.3548 57.1781 65.4001C57.4018 65.4542 57.6263 65.5051 57.8516 65.5552C58.0387 65.5966 58.2249 65.6387 58.4136 65.6777C58.6437 65.7254 58.8753 65.7699 59.107 65.8144C59.2837 65.8478 59.4596 65.882 59.6371 65.9138C60.1331 66.0013 60.6322 66.0824 61.1345 66.1524C61.2053 66.1619 61.277 66.1699 61.3486 66.1794C61.7857 66.2383 62.2259 66.2908 62.6669 66.3361C62.8348 66.3536 63.0028 66.3695 63.1716 66.3854C63.455 66.4116 63.7392 66.4355 64.0233 66.4562C64.2009 66.4689 64.3792 66.4824 64.5575 66.4935C64.8552 66.5118 65.1529 66.5261 65.4515 66.5381C65.6178 66.5452 65.7842 66.554 65.9506 66.5587C66.2077 66.5667 66.4656 66.5699 66.7235 66.5738C66.9042 66.5762 67.0849 66.581 67.2656 66.581C67.5403 66.581 67.8149 66.577 68.0896 66.573C68.2456 66.5707 68.4016 66.5707 68.5576 66.5667C69.4006 66.5452 70.2429 66.4999 71.0803 66.4315C71.1002 66.4299 71.1201 66.4291 71.1408 66.4275C71.9966 66.3568 72.8475 66.2621 73.6905 66.1428C73.751 66.1341 73.8115 66.1238 73.872 66.1142C74.2382 66.0609 74.6028 66.0045 74.9658 65.9417C75.1155 65.9162 75.2627 65.886 75.4108 65.859C75.6846 65.8089 75.9577 65.7588 76.2291 65.7031C76.3708 65.6737 76.5109 65.6411 76.6526 65.6109C76.9511 65.5465 77.2489 65.4805 77.5434 65.4097C77.7074 65.3699 77.8706 65.3278 78.0338 65.2864C78.302 65.218 78.5695 65.1481 78.8346 65.0749C78.9866 65.0328 79.1379 64.989 79.2891 64.9445C79.7094 64.822 80.1258 64.6932 80.5365 64.5572C80.6106 64.5326 80.6854 64.5103 80.7586 64.4857C81.2323 64.325 81.6972 64.1541 82.1565 63.9752C82.2544 63.937 82.3507 63.8972 82.4478 63.8583C83.0449 63.6189 83.6316 63.3668 84.2007 63.0957C84.2581 63.0686 84.3138 63.0384 84.3719 63.0114C84.9673 62.7227 85.55 62.4206 86.1105 62.0977C87.018 61.5745 87.8419 61.021 88.5909 60.4453V65.4892C87.8411 66.0649 87.018 66.6184 86.1105 67.1416C85.55 67.4645 84.9673 67.7674 84.3719 68.0553C84.3146 68.0831 84.2589 68.1125 84.2007 68.1396C83.6316 68.4107 83.0449 68.6628 82.4478 68.9022C82.3507 68.9411 82.2544 68.9809 82.1565 69.0191C81.6972 69.198 81.2323 69.3689 80.7586 69.5296C80.6854 69.5542 80.6098 69.5765 80.5365 69.6011C80.1258 69.7371 79.7094 69.8659 79.2891 69.9884C79.1379 70.0321 78.9866 70.0759 78.8346 70.1188C78.5695 70.192 78.302 70.2619 78.0338 70.3303C77.8706 70.3717 77.7074 70.4138 77.5434 70.4536C77.2481 70.5243 76.9503 70.5903 76.6526 70.6548C76.5117 70.685 76.3716 70.7176 76.2291 70.747C75.9577 70.8027 75.6846 70.852 75.4108 70.9029C75.2619 70.9299 75.1147 70.9601 74.9658 70.9856C74.6036 71.0484 74.2382 71.1048 73.872 71.1581C73.8115 71.1669 73.751 71.178 73.6905 71.1867C72.8475 71.306 71.9966 71.4006 71.1408 71.4714C71.1209 71.473 71.101 71.4738 71.0803 71.4754C70.2429 71.543 69.4006 71.5883 68.5576 71.6106C68.4016 71.6145 68.2456 71.6145 68.0896 71.6169C67.8149 71.6209 67.5403 71.6257 67.2656 71.6249C67.0849 71.6249 66.9042 71.6201 66.7235 71.6177C66.4656 71.6138 66.2085 71.6106 65.9506 71.6026C65.7842 71.5979 65.6178 71.5891 65.4515 71.5819C65.1529 71.5692 64.8552 71.5557 64.5575 71.5374C64.3792 71.5263 64.2017 71.5136 64.0233 71.5C63.7392 71.4794 63.455 71.4555 63.1716 71.4293C63.0028 71.4134 62.8348 71.3975 62.6669 71.38C62.2259 71.3338 61.7865 71.2822 61.3486 71.2233C61.2778 71.2138 61.2061 71.2058 61.1345 71.1963C60.6322 71.1263 60.1331 71.0452 59.6371 70.9577C59.4596 70.9259 59.2837 70.8925 59.107 70.8583C58.8753 70.8138 58.6437 70.7701 58.4136 70.7215C58.2257 70.6826 58.0387 70.6404 57.8516 70.5991C57.6263 70.549 57.401 70.4973 57.1781 70.444C56.9919 70.3987 56.8072 70.3518 56.6225 70.3041C56.402 70.2468 56.1815 70.1888 55.9626 70.1283C55.7787 70.0774 55.5964 70.025 55.4141 69.9717C55.1984 69.9081 54.9834 69.8429 54.7701 69.7753C54.6101 69.7244 54.4501 69.6735 54.2917 69.6202C53.9032 69.4922 53.5195 69.3578 53.1406 69.2171C53.0626 69.1876 52.9822 69.1614 52.905 69.1312C52.4568 68.961 52.0166 68.7805 51.5835 68.5928C51.4721 68.5443 51.3622 68.4934 51.2516 68.4433C50.9188 68.2946 50.5909 68.1404 50.2677 67.9805C50.2223 67.9583 50.1769 67.9352 50.1307 67.9129V62.869C50.1761 62.8913 50.2215 62.9144 50.2677 62.9366Z" fill="#5552FF"/>
<path d="M79.7452 65.9719C80 65.8939 80.2563 65.8184 80.5071 65.7349V67.7952C80.2555 67.8779 80 67.9543 79.7452 68.0314V65.9711V65.9719Z" fill="url(#paint4_linear_2107_49101)"/>
<path d="M81.4073 65.4184C81.6581 65.3269 81.9112 65.2403 82.158 65.1441C82.162 65.1425 82.1652 65.1409 82.1692 65.1393V67.1996C82.1692 67.1996 82.162 67.2028 82.158 67.2044C81.9112 67.3006 81.6573 67.3873 81.4073 67.4787V65.4184Z" fill="url(#paint5_linear_2107_49101)"/>
<path d="M78.0823 66.4418C78.3346 66.3774 78.5862 66.3114 78.8353 66.243C78.8385 66.2422 78.8417 66.2414 78.8417 66.2414L78.8449 68.301C78.8449 68.301 78.8385 68.3026 78.8353 68.3034C78.5862 68.3725 78.3346 68.4377 78.0823 68.5021V66.4418Z" fill="url(#paint6_linear_2107_49101)"/>
<path d="M61.4592 67.3595C61.7124 67.3929 61.9671 67.4215 62.221 67.4501V69.5105C61.9663 69.4818 61.7124 69.4532 61.4592 69.4198V67.3595Z" fill="url(#paint7_linear_2107_49101)"/>
<path d="M53.1477 65.3429C53.3985 65.4359 53.6548 65.5226 53.9095 65.6101V67.6704C53.654 67.5829 53.3985 67.4962 53.1477 67.4032V65.3429Z" fill="url(#paint8_linear_2107_49101)"/>
<path d="M72.1955 69.5375C71.9408 69.5645 71.6885 69.5995 71.4337 69.6226V67.5622C71.6892 67.5392 71.9416 67.5042 72.1955 67.4771V69.5375Z" fill="url(#paint9_linear_2107_49101)"/>
<path d="M59.7971 67.1058C60.0503 67.1495 60.305 67.1877 60.5589 67.2275V69.2878C60.3042 69.248 60.0495 69.2107 59.7971 69.1669V67.1066V67.1058Z" fill="url(#paint10_linear_2107_49101)"/>
<path d="M69.7708 67.6696C70.0247 67.6561 70.2794 67.6465 70.5326 67.629V69.6894C70.2786 69.7069 70.0247 69.7172 69.7708 69.7299V67.6696Z" fill="url(#paint11_linear_2107_49101)"/>
<path d="M63.1222 67.5479C63.1389 67.5495 63.1556 67.5511 63.1723 67.5527C63.4088 67.5749 63.6468 67.594 63.884 67.6115V69.6719C63.646 69.6536 63.4088 69.6345 63.1723 69.613C63.1556 69.6114 63.1389 69.6098 63.1222 69.6082V67.5479Z" fill="url(#paint12_linear_2107_49101)"/>
<path d="M58.135 66.7845C58.2281 66.8052 58.3205 66.8259 58.4136 66.8458C58.5736 66.8792 58.7352 66.9094 58.8968 66.9404V69.0007C58.7352 68.9697 58.5736 68.9387 58.4136 68.9053C58.3205 68.8862 58.2274 68.8648 58.135 68.8441V66.7838V66.7845Z" fill="url(#paint13_linear_2107_49101)"/>
<path d="M56.4728 66.3869C56.5229 66.4005 56.5731 66.414 56.6232 66.4267C56.8079 66.4744 56.9926 66.5213 57.1789 66.5666C57.1972 66.5714 57.2163 66.5754 57.2354 66.5794V68.6397C57.2171 68.6349 57.198 68.631 57.1789 68.627C56.9926 68.5817 56.8079 68.5347 56.6232 68.487C56.5731 68.4743 56.5229 68.46 56.4728 68.4473V66.3869Z" fill="url(#paint14_linear_2107_49101)"/>
<path d="M54.8107 65.9106C55.0113 65.9734 55.2127 66.0347 55.4157 66.0943C55.4682 66.1094 55.5207 66.1245 55.5733 66.1396V68.2C55.5207 68.1849 55.4682 68.1705 55.4157 68.1546C55.2127 68.095 55.0113 68.0338 54.8107 67.971V65.9106Z" fill="url(#paint15_linear_2107_49101)"/>
<path d="M52.2482 64.9866V67.047C52.0452 66.9643 51.839 66.8847 51.6384 66.7989V64.7385C51.839 64.8244 52.0452 64.9039 52.2482 64.9866Z" fill="url(#paint16_linear_2107_49101)"/>
<path d="M66.4465 67.7356C66.5389 67.7372 66.6312 67.7396 66.7236 67.7412C66.8852 67.7435 67.0468 67.7467 67.2084 67.7475V69.8079C67.0468 69.8071 66.8852 69.8031 66.7236 69.8015C66.6312 69.7999 66.5389 69.7975 66.4465 69.7959V67.7356Z" fill="url(#paint17_linear_2107_49101)"/>
<path d="M73.0958 67.3769C73.2932 67.3515 73.4946 67.338 73.6913 67.3101C73.747 67.3022 73.8027 67.2927 73.8576 67.2839V69.3442C73.8019 69.3522 73.747 69.3625 73.6913 69.3705C73.4946 69.3983 73.2932 69.4118 73.0958 69.4373V67.3769Z" fill="url(#paint18_linear_2107_49101)"/>
<path d="M74.7581 67.1424C74.8273 67.1313 74.8974 67.1217 74.9666 67.1098C75.1163 67.0843 75.2635 67.0541 75.4116 67.0271C75.4482 67.0207 75.4841 67.0128 75.5199 67.0064V69.0667C75.4833 69.0731 75.4474 69.0811 75.4116 69.0874C75.2627 69.1145 75.1155 69.1447 74.9666 69.1701C74.8974 69.182 74.8273 69.1916 74.7581 69.2027V67.1424Z" fill="url(#paint19_linear_2107_49101)"/>
<path d="M68.1086 67.7403C68.2583 67.7388 68.408 67.738 68.5584 67.734C68.6627 67.7316 68.767 67.7205 68.8713 67.7173V69.7776C68.767 69.7808 68.6627 69.7919 68.5584 69.7943C68.4088 69.7983 68.2591 69.7983 68.1086 69.8007V67.7403Z" fill="url(#paint20_linear_2107_49101)"/>
<path d="M76.4202 66.8299C76.4974 66.8124 76.5754 66.7957 76.6526 66.779C76.8301 66.7408 77.0053 66.6995 77.182 66.6597V68.72C77.0061 68.7598 76.8301 68.8011 76.6526 68.8393C76.5754 68.856 76.4974 68.8727 76.4202 68.8902V66.8299Z" fill="url(#paint21_linear_2107_49101)"/>
<path d="M64.7843 67.672C65.0064 67.6839 65.2293 67.6958 65.4522 67.7054C65.484 67.707 65.5151 67.7077 65.5469 67.7093V69.7697C65.5151 69.7681 65.484 69.7673 65.4522 69.7657C65.2293 69.7562 65.0072 69.7442 64.7843 69.7323V67.672Z" fill="url(#paint22_linear_2107_49101)"/>
<path d="M41.0207 35.0597C41.0279 35.1925 41.0358 35.326 41.0494 35.4588C41.0613 35.5741 41.0772 35.6894 41.0931 35.8055C41.1114 35.9383 41.1313 36.0703 41.1552 36.2023C41.1767 36.3192 41.2022 36.4353 41.2285 36.5514C41.2571 36.6803 41.2882 36.8091 41.3224 36.9379C41.3534 37.054 41.3885 37.1701 41.4243 37.2862C41.4641 37.4142 41.5063 37.5422 41.5517 37.6703C41.5923 37.784 41.6352 37.8977 41.6806 38.0106C41.734 38.1442 41.7905 38.2786 41.8502 38.4114C41.9003 38.5235 41.9521 38.6348 42.0062 38.7462C42.0707 38.8782 42.1399 39.0102 42.2108 39.1414C42.2689 39.2487 42.3278 39.3561 42.3899 39.4626C42.4814 39.6193 42.5794 39.7759 42.6797 39.931C42.741 40.0256 42.7999 40.1202 42.8643 40.2141C42.9822 40.3858 43.1087 40.5552 43.2377 40.7246C43.2942 40.7985 43.3467 40.8741 43.4049 40.948C43.619 41.2176 43.8483 41.484 44.091 41.748C44.1531 41.8156 44.2208 41.8824 44.2853 41.95C44.4771 42.1504 44.6761 42.3492 44.8847 42.5456C44.9802 42.6354 45.075 42.7253 45.1737 42.8144C45.2979 42.9265 45.426 43.037 45.5558 43.1475C45.6752 43.2493 45.7962 43.3503 45.9204 43.4505C46.0557 43.5594 46.195 43.6676 46.3359 43.7749C46.4649 43.8735 46.5946 43.9714 46.7284 44.0684C46.874 44.1741 47.0253 44.2791 47.1765 44.3833C47.315 44.4787 47.4543 44.5741 47.5984 44.6687C47.7553 44.7713 47.9161 44.8715 48.0784 44.9725C48.2806 45.0981 48.4805 45.2246 48.6914 45.347C49.087 45.5768 49.4954 45.7947 49.9086 46.0062C50.0272 46.0675 50.1482 46.1263 50.2692 46.186C50.5924 46.3458 50.9203 46.5001 51.2531 46.6488C51.3637 46.6989 51.4736 46.7497 51.585 46.7982C52.0181 46.9859 52.4583 47.1664 52.9065 47.3366C52.9845 47.366 53.0641 47.3931 53.1421 47.4225C53.521 47.5632 53.9047 47.6976 54.2932 47.8256C54.4524 47.8781 54.6116 47.9298 54.7716 47.9807C54.985 48.0475 55.1999 48.1135 55.4156 48.1771C55.5979 48.2304 55.7802 48.2829 55.9641 48.3338C56.183 48.3942 56.4027 48.4522 56.624 48.5095C56.8087 48.5572 56.9934 48.6041 57.1797 48.6495C57.4033 48.7035 57.6278 48.7544 57.8531 48.8045C58.0402 48.8459 58.2265 48.888 58.4151 48.927C58.6452 48.9747 58.8768 49.0192 59.1085 49.0637C59.2852 49.0971 59.4611 49.1313 59.6386 49.1631C60.1346 49.2506 60.6337 49.3317 61.136 49.4017C61.2069 49.4112 61.2785 49.4192 61.3501 49.4287C61.7872 49.4876 62.2274 49.5401 62.6684 49.5854C62.8364 49.6029 63.0043 49.6188 63.1731 49.6347C63.4565 49.6609 63.7407 49.6848 64.0249 49.7055C64.2024 49.7182 64.3807 49.7317 64.559 49.7428C64.8567 49.7611 65.1544 49.7754 65.453 49.7874C65.6193 49.7945 65.7857 49.8033 65.9521 49.808C66.2092 49.816 66.4671 49.8192 66.725 49.8232C66.9058 49.8255 67.0865 49.8303 67.2672 49.8303C67.5418 49.8303 67.8164 49.8263 68.0911 49.8224C68.2471 49.82 68.4031 49.82 68.5591 49.816C69.4022 49.7945 70.2444 49.7492 71.0818 49.6808C71.1017 49.6792 71.1216 49.6784 71.1423 49.6768C71.9981 49.6061 72.849 49.5114 73.692 49.3922C73.7525 49.3834 73.813 49.3731 73.8735 49.3635C74.2397 49.3103 74.6043 49.2538 74.9673 49.191C75.117 49.1655 75.2642 49.1353 75.4123 49.1083C75.6861 49.0582 75.9592 49.0081 76.2306 48.9524C76.3723 48.923 76.5124 48.8904 76.6541 48.8602C76.9527 48.7958 77.2504 48.7298 77.5449 48.659C77.7089 48.6192 77.8721 48.5771 78.0353 48.5357C78.3035 48.4674 78.571 48.3974 78.8361 48.3242C78.9881 48.2821 79.1394 48.2383 79.2906 48.1938C79.711 48.0713 80.1273 47.9425 80.5381 47.8066C80.6121 47.7819 80.6869 47.7596 80.7601 47.735C81.2338 47.5744 81.6987 47.4034 82.158 47.2245C82.2559 47.1863 82.3522 47.1465 82.4494 47.1076C83.0464 46.8682 83.6331 46.6162 84.2023 46.345C84.2596 46.318 84.3153 46.2877 84.3734 46.2607C84.9688 45.972 85.5516 45.6699 86.112 45.347C91.3293 42.338 93.9347 38.3883 93.9236 34.445L93.9992 46.1502C94.0103 50.0935 91.4049 54.0432 86.1876 57.0522C85.6272 57.3759 85.0445 57.678 84.4482 57.9667C84.3909 57.9945 84.336 58.0239 84.2787 58.051C83.7095 58.3221 83.1228 58.5742 82.525 58.8136C82.4716 58.835 82.4231 58.8597 82.3698 58.8812C82.3252 58.8987 82.279 58.9138 82.2344 58.9305C81.7751 59.1094 81.3094 59.2803 80.8358 59.441C80.7625 59.4656 80.6877 59.4879 80.6145 59.5125C80.2029 59.6493 79.7858 59.7781 79.3655 59.9006C79.2946 59.9213 79.227 59.9451 79.1561 59.9658C79.0757 59.9889 78.9921 60.0079 78.9109 60.0302C78.6458 60.1042 78.3784 60.1741 78.1101 60.2425C77.9469 60.2839 77.7837 60.326 77.6197 60.3658C77.3252 60.4366 77.0275 60.5025 76.7298 60.5662C76.6183 60.59 76.5085 60.6186 76.3962 60.6417C76.366 60.6481 76.3357 60.6528 76.3055 60.6592C76.0348 60.7149 75.7618 60.7642 75.4887 60.8143C75.3399 60.8413 75.1918 60.8715 75.0429 60.8978C74.6799 60.9606 74.3154 61.017 73.9492 61.0703C73.8903 61.0791 73.8322 61.0894 73.7732 61.0981C73.7732 61.0981 73.7693 61.0981 73.7677 61.0981C72.9247 61.2174 72.0737 61.3121 71.2179 61.3828C71.2124 61.3828 71.2068 61.3844 71.2012 61.3844C71.1869 61.3852 71.1718 61.3852 71.1574 61.3868C70.32 61.4552 69.4778 61.4997 68.6348 61.522C68.6212 61.522 68.6085 61.5236 68.595 61.5244C68.4525 61.5276 68.3092 61.5268 68.1667 61.5283C67.8921 61.5323 67.6174 61.5371 67.342 61.5363C67.1613 61.5363 66.9806 61.5315 66.7999 61.5291C66.542 61.5252 66.2848 61.522 66.0269 61.514C65.9792 61.5124 65.9322 61.5132 65.8844 61.5116C65.765 61.5077 65.6464 61.4989 65.5278 61.4934C65.2293 61.4806 64.9316 61.4671 64.6346 61.4488C64.4563 61.4377 64.278 61.425 64.1005 61.4115C63.8163 61.3908 63.5321 61.3669 63.2495 61.3407C63.15 61.3311 63.0505 61.3256 62.951 61.316C62.8817 61.3089 62.8133 61.2985 62.744 61.2914C62.303 61.2453 61.8636 61.1936 61.4266 61.1347C61.3549 61.1252 61.2833 61.1172 61.2116 61.1077C60.7093 61.0369 60.2102 60.9566 59.7143 60.8691C59.6681 60.8612 59.6211 60.8556 59.575 60.8469C59.4436 60.823 59.3139 60.7944 59.1825 60.7697C58.9509 60.726 58.72 60.6815 58.4899 60.6338C58.3013 60.5948 58.1142 60.5526 57.9271 60.5105C57.7019 60.4604 57.4774 60.4095 57.2545 60.3554C57.0682 60.3101 56.8827 60.2632 56.698 60.2155C56.4775 60.1582 56.2578 60.1002 56.0397 60.0397C55.8558 59.9889 55.6727 59.9364 55.4904 59.8823C55.2747 59.8187 55.0606 59.7535 54.8472 59.6867C54.7541 59.6573 54.6586 59.631 54.5654 59.6008C54.4986 59.5793 54.4341 59.5539 54.368 59.5316C53.9803 59.4036 53.5966 59.2692 53.2185 59.1285C53.1397 59.099 53.0593 59.072 52.9813 59.0426C52.5331 58.8724 52.0937 58.6919 51.6607 58.5042C51.5484 58.4557 51.4386 58.404 51.3271 58.3547C50.9952 58.206 50.6672 58.0518 50.3448 57.8927C50.2238 57.8331 50.1028 57.7735 49.9834 57.7122C49.5694 57.4999 49.1619 57.2828 48.7662 57.053C48.6572 56.9902 48.5497 56.9266 48.443 56.8622C48.3427 56.8017 48.2504 56.7389 48.1525 56.6785C47.9909 56.5783 47.8293 56.4773 47.6733 56.3747C47.53 56.2809 47.3907 56.1855 47.2514 56.0892C47.0993 55.9851 46.9489 55.8801 46.8032 55.7743C46.6694 55.6773 46.5397 55.5787 46.4107 55.4801C46.2698 55.3728 46.1305 55.2646 45.996 55.1557C45.8718 55.0555 45.7508 54.9537 45.6314 54.8527C45.5016 54.7422 45.3735 54.6317 45.2493 54.5195C45.1984 54.4734 45.1426 54.4289 45.0925 54.3828C45.0455 54.3398 45.0065 54.2953 44.9603 54.2516C44.7518 54.0544 44.552 53.8556 44.3601 53.6552C44.2964 53.5884 44.2296 53.5224 44.1675 53.4548C43.9247 53.1916 43.6946 52.9244 43.4805 52.6548C43.4717 52.6429 43.4598 52.6318 43.451 52.6206C43.4017 52.5586 43.3611 52.4942 43.3133 52.4314C43.1844 52.262 43.0578 52.0926 42.94 51.9209C42.8755 51.827 42.8166 51.7316 42.7553 51.6378C42.655 51.4819 42.5571 51.3269 42.4655 51.1694C42.4408 51.1265 42.4106 51.0843 42.3859 51.0414C42.3501 50.9778 42.3214 50.9126 42.2864 50.8489C42.2156 50.7169 42.1463 50.5857 42.0818 50.4529C42.0277 50.3416 41.976 50.2303 41.9258 50.119C41.8661 49.9854 41.8104 49.8526 41.757 49.7182C41.7332 49.6585 41.7037 49.5989 41.6814 49.5393C41.6615 49.4852 41.6472 49.4311 41.6281 49.3771C41.5827 49.2498 41.5413 49.1226 41.5015 48.9946C41.4657 48.8785 41.4307 48.7624 41.3988 48.6455C41.3646 48.5174 41.3335 48.3886 41.3049 48.2598C41.289 48.1898 41.2683 48.1206 41.2539 48.0507C41.2444 48.0038 41.2404 47.9568 41.2316 47.9099C41.207 47.7779 41.1879 47.6459 41.1696 47.5147C41.1536 47.3986 41.1377 47.2833 41.1258 47.1672C41.1122 47.0344 41.1043 46.9016 41.0971 46.7688C41.0931 46.6909 41.0828 46.613 41.0804 46.535C41.078 46.4579 41.0772 46.38 41.0764 46.3028L41 34.5945C41 34.7495 41.0119 34.9046 41.0207 35.0597Z" fill="url(#paint23_linear_2107_49101)"/>
<path d="M41.0207 34.8521C41.0279 34.9849 41.0358 35.1185 41.0494 35.2513C41.0613 35.3666 41.0772 35.4819 41.0931 35.598C41.1114 35.7308 41.1313 35.8628 41.1552 35.9948C41.1767 36.1117 41.2022 36.2278 41.2285 36.3439C41.2571 36.4727 41.2882 36.6015 41.3224 36.7303C41.3534 36.8464 41.3885 36.9625 41.4243 37.0786C41.4641 37.2067 41.5063 37.3347 41.5517 37.4627C41.5923 37.5764 41.6352 37.6901 41.6806 37.8031C41.734 37.9367 41.7905 38.071 41.8502 38.2038C41.9003 38.316 41.9521 38.4273 42.0062 38.5386C42.0707 38.6706 42.1399 38.8026 42.2108 38.9338C42.2689 39.0412 42.3278 39.1485 42.3899 39.2551C42.4814 39.4117 42.5794 39.5684 42.6797 39.7234C42.741 39.8181 42.7999 39.9127 42.8643 40.0065C42.9822 40.1783 43.1087 40.3477 43.2377 40.517C43.2942 40.591 43.3467 40.6665 43.4049 40.7405C43.619 41.0101 43.8483 41.2764 44.091 41.5404C44.1531 41.608 44.2208 41.6748 44.2853 41.7424C44.4771 41.9428 44.6761 42.1416 44.8847 42.338C44.9802 42.4279 45.075 42.5177 45.1737 42.6068C45.2979 42.7189 45.426 42.8295 45.5558 42.94C45.6752 43.0418 45.7962 43.1428 45.9204 43.243C46.0557 43.3519 46.195 43.46 46.3359 43.5674C46.4649 43.666 46.5946 43.7638 46.7284 43.8608C46.874 43.9666 47.0253 44.0715 47.1765 44.1757C47.315 44.2711 47.4543 44.3666 47.5984 44.4612C47.7553 44.5638 47.9161 44.664 48.0784 44.7649C48.2806 44.8906 48.4805 45.017 48.6914 45.1395C49.087 45.3693 49.4954 45.5872 49.9086 45.7987C50.0272 45.8599 50.1482 45.9188 50.2692 45.9784C50.5924 46.1382 50.9203 46.2925 51.2531 46.4412C51.3637 46.4913 51.4736 46.5422 51.585 46.5907C52.0181 46.7784 52.4583 46.9589 52.9065 47.129C52.9845 47.1585 53.0641 47.1855 53.1421 47.2149C53.521 47.3557 53.9047 47.4901 54.2932 47.6181C54.4524 47.6706 54.6116 47.7223 54.7716 47.7731C54.985 47.8399 55.1999 47.9059 55.4156 47.9696C55.5979 48.0228 55.7802 48.0753 55.9641 48.1262C56.183 48.1866 56.4027 48.2447 56.624 48.3019C56.8087 48.3497 56.9934 48.3966 57.1797 48.4419C57.4033 48.496 57.6278 48.5469 57.8531 48.597C58.0402 48.6383 58.2265 48.6805 58.4151 48.7194C58.6452 48.7671 58.8768 48.8117 59.1085 48.8562C59.2852 48.8896 59.4611 48.9238 59.6386 48.9556C60.1346 49.0431 60.6337 49.1242 61.136 49.1941C61.2069 49.2037 61.2785 49.2116 61.3501 49.2212C61.7872 49.28 62.2274 49.3325 62.6684 49.3778C62.8364 49.3953 63.0043 49.4112 63.1731 49.4271C63.4565 49.4534 63.7407 49.4772 64.0249 49.4979C64.2024 49.5106 64.3807 49.5242 64.559 49.5353C64.8567 49.5536 65.1544 49.5679 65.453 49.5798C65.6193 49.587 65.7857 49.5957 65.9521 49.6005C66.2092 49.6084 66.4671 49.6116 66.725 49.6156C66.9058 49.618 67.0865 49.6228 67.2672 49.6228C67.5418 49.6228 67.8164 49.6188 68.0911 49.6148C68.2471 49.6124 68.4031 49.6124 68.5591 49.6084C69.4022 49.587 70.2444 49.5416 71.0818 49.4733C71.1017 49.4717 71.1216 49.4709 71.1423 49.4693C71.9981 49.3985 72.849 49.3039 73.692 49.1846C73.7525 49.1759 73.813 49.1655 73.8735 49.156C74.2397 49.1027 74.6043 49.0462 74.9673 48.9834C75.117 48.958 75.2642 48.9278 75.4123 48.9007C75.6861 48.8506 75.9592 48.8005 76.2306 48.7449C76.3723 48.7154 76.5124 48.6828 76.6541 48.6526C76.9527 48.5882 77.2504 48.5222 77.5449 48.4514C77.7089 48.4117 77.8721 48.3695 78.0353 48.3282C78.3035 48.2598 78.571 48.1898 78.8361 48.1167C78.9881 48.0745 79.1394 48.0308 79.2906 47.9863C79.711 47.8638 80.1273 47.735 80.5381 47.599C80.6121 47.5743 80.6869 47.5521 80.7601 47.5274C81.2338 47.3668 81.6987 47.1958 82.158 47.0169C82.2559 46.9788 82.3522 46.939 82.4494 46.9C83.0464 46.6607 83.6331 46.4086 84.2023 46.1374C84.2596 46.1104 84.3153 46.0802 84.3734 46.0532C84.9688 45.7645 85.5516 45.4623 86.112 45.1395C91.3293 42.1305 93.9347 38.1808 93.9236 34.2374L93.9992 45.9426C94.0103 49.886 91.4049 53.8357 86.1876 56.8447C85.6272 57.1683 85.0445 57.4705 84.4482 57.7591C84.3909 57.787 84.336 57.8164 84.2787 57.8434C83.7095 58.1146 83.1228 58.3667 82.525 58.606C82.4716 58.6275 82.4231 58.6521 82.3698 58.6736C82.3252 58.6911 82.279 58.7062 82.2344 58.7229C81.7751 58.9018 81.3094 59.0728 80.8358 59.2334C80.7625 59.2581 80.6877 59.2803 80.6145 59.305C80.2029 59.4418 79.7858 59.5706 79.3655 59.693C79.2946 59.7137 79.227 59.7376 79.1561 59.7582C79.0757 59.7813 78.9921 59.8004 78.9109 59.8227C78.6458 59.8966 78.3784 59.9666 78.1101 60.035C77.9469 60.0763 77.7837 60.1185 77.6197 60.1582C77.3252 60.229 77.0275 60.295 76.7298 60.3586C76.6183 60.3825 76.5085 60.4111 76.3962 60.4342C76.366 60.4405 76.3357 60.4453 76.3055 60.4517C76.0348 60.5073 75.7618 60.5566 75.4887 60.6067C75.3399 60.6337 75.1918 60.664 75.0429 60.6902C74.6799 60.753 74.3154 60.8095 73.9492 60.8628C73.8903 60.8715 73.8322 60.8818 73.7732 60.8906C73.7732 60.8906 73.7693 60.8906 73.7677 60.8906C72.9247 61.0099 72.0737 61.1045 71.2179 61.1753C71.2124 61.1753 71.2068 61.1769 71.2012 61.1769C71.1869 61.1777 71.1718 61.1777 71.1574 61.1793C70.32 61.2476 69.4778 61.2922 68.6348 61.3144C68.6212 61.3144 68.6085 61.316 68.595 61.3168C68.4525 61.32 68.3092 61.3192 68.1667 61.3208C67.8921 61.3248 67.6174 61.3295 67.342 61.3287C67.1613 61.3287 66.9806 61.324 66.7999 61.3216C66.542 61.3176 66.2848 61.3144 66.0269 61.3065C65.9792 61.3049 65.9322 61.3057 65.8844 61.3041C65.765 61.3001 65.6464 61.2914 65.5278 61.2858C65.2293 61.2731 64.9316 61.2596 64.6346 61.2413C64.4563 61.2301 64.278 61.2174 64.1005 61.2039C63.8163 61.1832 63.5321 61.1594 63.2495 61.1331C63.15 61.1236 63.0505 61.118 62.951 61.1085C62.8817 61.1013 62.8133 61.091 62.744 61.0838C62.303 61.0377 61.8636 60.986 61.4266 60.9272C61.3549 60.9176 61.2833 60.9097 61.2116 60.9001C60.7093 60.8294 60.2102 60.7491 59.7143 60.6616C59.6681 60.6536 59.6211 60.6481 59.575 60.6393C59.4436 60.6155 59.3139 60.5868 59.1825 60.5622C58.9509 60.5184 58.72 60.4739 58.4899 60.4262C58.3013 60.3872 58.1142 60.3451 57.9271 60.3029C57.7019 60.2529 57.4774 60.202 57.2545 60.1479C57.0682 60.1026 56.8827 60.0556 56.698 60.0079C56.4775 59.9507 56.2578 59.8926 56.0397 59.8322C55.8558 59.7813 55.6727 59.7288 55.4904 59.6748C55.2747 59.6111 55.0606 59.5459 54.8472 59.4791C54.7541 59.4497 54.6586 59.4235 54.5654 59.3933C54.4986 59.3718 54.4341 59.3463 54.368 59.3241C53.9803 59.196 53.5966 59.0617 53.2185 58.9209C53.1397 58.8915 53.0593 58.8645 52.9813 58.835C52.5331 58.6649 52.0937 58.4844 51.6607 58.2967C51.5484 58.2482 51.4386 58.1965 51.3271 58.1472C50.9952 57.9985 50.6672 57.8442 50.3448 57.6852C50.2238 57.6255 50.1028 57.5659 49.9834 57.5047C49.5694 57.2924 49.1619 57.0753 48.7662 56.8455C48.6572 56.7826 48.5497 56.719 48.443 56.6546C48.3427 56.5942 48.2504 56.5314 48.1525 56.4709C47.9909 56.3707 47.8293 56.2697 47.6733 56.1672C47.53 56.0733 47.3907 55.9779 47.2514 55.8817C47.0993 55.7775 46.9489 55.6726 46.8032 55.5668C46.6694 55.4698 46.5397 55.3712 46.4107 55.2726C46.2698 55.1652 46.1305 55.0571 45.996 54.9481C45.8718 54.8479 45.7508 54.7462 45.6314 54.6444C45.5016 54.5338 45.3735 54.4233 45.2493 54.3112C45.1984 54.2651 45.1426 54.2205 45.0925 54.1744C45.0455 54.1315 45.0065 54.087 44.9603 54.0432C44.7518 53.846 44.552 53.6472 44.3601 53.4468C44.2964 53.38 44.2296 53.314 44.1675 53.2464C43.9247 52.9832 43.6946 52.716 43.4805 52.4465C43.4717 52.4345 43.4598 52.4234 43.451 52.4123C43.4017 52.3503 43.3611 52.2858 43.3133 52.223C43.1844 52.0537 43.0578 51.8843 42.94 51.7125C42.8755 51.6187 42.8166 51.5233 42.7553 51.4294C42.655 51.2736 42.5571 51.1185 42.4655 50.9611C42.4408 50.9181 42.4106 50.876 42.3859 50.833C42.3501 50.7694 42.3214 50.7042 42.2864 50.6406C42.2156 50.5086 42.1463 50.3774 42.0818 50.2446C42.0277 50.1333 41.976 50.0219 41.9258 49.9106C41.8661 49.777 41.8104 49.6442 41.757 49.5098C41.7332 49.4502 41.7037 49.3906 41.6814 49.3309C41.6615 49.2768 41.6472 49.2228 41.6281 49.1687C41.5827 49.0415 41.5413 48.9142 41.5015 48.7862C41.4657 48.6701 41.4307 48.554 41.3988 48.4371C41.3646 48.3091 41.3335 48.1803 41.3049 48.0515C41.289 47.9815 41.2683 47.9123 41.2539 47.8423C41.2444 47.7954 41.2404 47.7485 41.2316 47.7016C41.207 47.5696 41.1879 47.4384 41.1696 47.3064C41.1536 47.1903 41.1377 47.075 41.1258 46.9589C41.1122 46.8261 41.1043 46.6933 41.0971 46.5605C41.0931 46.4826 41.0828 46.4046 41.0804 46.3267C41.078 46.2496 41.0772 46.1716 41.0764 46.0945L41 34.3869C41 34.542 41.0119 34.697 41.0207 34.8521Z" fill="url(#paint24_linear_2107_49101)"/>
<path d="M67.5047 49.6228C82.1188 49.582 93.9468 42.6942 93.9231 34.2385C93.8995 25.7827 82.0332 18.961 67.4191 19.0017C52.8049 19.0425 40.9769 25.9303 41.0006 34.3861C41.0242 42.8419 52.8905 49.6636 67.5047 49.6228Z" fill="url(#paint25_linear_2107_49101)"/>
<path d="M50.2675 48.4713C50.5907 48.6312 50.9187 48.7854 51.2514 48.9341C51.3621 48.9842 51.472 49.0351 51.5834 49.0836C52.0165 49.2713 52.4567 49.4518 52.9048 49.622C52.9829 49.6514 53.0625 49.6784 53.1405 49.7079C53.5194 49.8486 53.9031 49.983 54.2916 50.111C54.4508 50.1635 54.61 50.2152 54.77 50.2661C54.9833 50.3329 55.1983 50.3989 55.414 50.4625C55.5963 50.5158 55.7786 50.5683 55.9625 50.6191C56.1814 50.6796 56.4011 50.7376 56.6224 50.7949C56.8071 50.8426 56.9917 50.8895 57.178 50.9348C57.4017 50.9889 57.6262 51.0398 57.8515 51.0899C58.0385 51.1312 58.2248 51.1734 58.4135 51.2124C58.6435 51.2601 58.8752 51.3046 59.1068 51.3491C59.2836 51.3825 59.4595 51.4167 59.637 51.4485C60.1329 51.536 60.6321 51.6171 61.1344 51.6871C61.2052 51.6966 61.2769 51.7046 61.3485 51.7141C61.7855 51.773 62.2258 51.8255 62.6668 51.8708C62.8347 51.8883 63.0027 51.9042 63.1715 51.9201C63.4548 51.9463 63.739 51.9702 64.0232 51.9909C64.2007 52.0036 64.3791 52.0171 64.5574 52.0282C64.8551 52.0465 65.1528 52.0608 65.4513 52.0728C65.6177 52.0799 65.7841 52.0887 65.9505 52.0934C66.2076 52.1014 66.4655 52.1046 66.7234 52.1085C66.9041 52.1109 67.0848 52.1157 67.2655 52.1157C67.5402 52.1157 67.8148 52.1117 68.0894 52.1077C68.2455 52.1054 68.4015 52.1054 68.5575 52.1014C69.4005 52.0799 70.2427 52.0346 71.0802 51.9662C71.1001 51.9646 71.12 51.9638 71.1407 51.9622C71.9964 51.8915 72.8474 51.7968 73.6904 51.6775C73.7509 51.6688 73.8114 51.6585 73.8719 51.6489C74.2381 51.5956 74.6027 51.5392 74.9657 51.4764C75.1153 51.4509 75.2626 51.4207 75.4107 51.3937C75.6845 51.3436 75.9576 51.2935 76.229 51.2378C76.3707 51.2084 76.5108 51.1758 76.6525 51.1456C76.951 51.0812 77.2487 51.0152 77.5433 50.9444C77.7073 50.9046 77.8705 50.8625 78.0337 50.8211C78.3019 50.7527 78.5694 50.6828 78.8345 50.6096C78.9865 50.5675 79.1378 50.5237 79.289 50.4792C79.7093 50.3567 80.1257 50.2279 80.5364 50.0919C80.6105 50.0673 80.6853 50.045 80.7585 50.0204C81.2322 49.8597 81.6971 49.6888 82.1564 49.5099C82.2543 49.4717 82.3506 49.4319 82.4477 49.393C83.0448 49.1536 83.6315 48.9015 84.2006 48.6304C84.2579 48.6033 84.3137 48.5731 84.3718 48.5461C84.9672 48.2574 85.5499 47.9553 86.1103 47.6324C87.0178 47.1092 87.8417 46.5557 88.5908 45.98V51.0239C87.8409 51.5996 87.0178 52.1531 86.1103 52.6763C85.5499 52.9992 84.9672 53.3021 84.3718 53.59C84.3145 53.6178 84.2587 53.6472 84.2006 53.6743C83.6315 53.9454 83.0448 54.1975 82.4477 54.4369C82.3506 54.4758 82.2543 54.5156 82.1564 54.5537C81.6971 54.7327 81.2322 54.9036 80.7585 55.0643C80.6853 55.0889 80.6097 55.1112 80.5364 55.1358C80.1257 55.2718 79.7093 55.4006 79.289 55.5231C79.1378 55.5668 78.9865 55.6106 78.8345 55.6535C78.5694 55.7267 78.3019 55.7966 78.0337 55.865C77.8705 55.9064 77.7073 55.9485 77.5433 55.9883C77.2479 56.059 76.9502 56.125 76.6525 56.1895C76.5116 56.2197 76.3715 56.2523 76.229 56.2817C75.9576 56.3374 75.6845 56.3867 75.4107 56.4376C75.2618 56.4646 75.1145 56.4948 74.9657 56.5203C74.6035 56.5831 74.2381 56.6395 73.8719 56.6928C73.8114 56.7016 73.7509 56.7127 73.6904 56.7214C72.8474 56.8407 71.9964 56.9353 71.1407 57.0061C71.1208 57.0077 71.1009 57.0085 71.0802 57.0101C70.2427 57.0777 69.4005 57.123 68.5575 57.1453C68.4015 57.1492 68.2455 57.1492 68.0894 57.1516C67.8148 57.1556 67.5402 57.1604 67.2655 57.1596C67.0848 57.1596 66.9041 57.1548 66.7234 57.1524C66.4655 57.1485 66.2084 57.1453 65.9505 57.1373C65.7841 57.1325 65.6177 57.1238 65.4513 57.1166C65.1528 57.1039 64.8551 57.0904 64.5574 57.0721C64.3791 57.061 64.2015 57.0483 64.0232 57.0347C63.739 57.0141 63.4548 56.9902 63.1715 56.964C63.0027 56.9481 62.8347 56.9322 62.6668 56.9147C62.2258 56.8685 61.7863 56.8169 61.3485 56.758C61.2777 56.7485 61.206 56.7405 61.1344 56.731C60.6321 56.661 60.1329 56.5799 59.637 56.4924C59.4595 56.4606 59.2836 56.4272 59.1068 56.393C58.8752 56.3485 58.6435 56.3048 58.4135 56.2562C58.2256 56.2173 58.0385 56.1751 57.8515 56.1338C57.6262 56.0837 57.4009 56.032 57.178 55.9787C56.9917 55.9334 56.8071 55.8865 56.6224 55.8388C56.4019 55.7815 56.1814 55.7235 55.9625 55.663C55.7786 55.6121 55.5963 55.5597 55.414 55.5064C55.1983 55.4428 54.9833 55.3776 54.77 55.31C54.61 55.2591 54.45 55.2082 54.2916 55.1549C53.9031 55.0269 53.5194 54.8925 53.1405 54.7517C53.0625 54.7223 52.9821 54.6961 52.9048 54.6659C52.4567 54.4957 52.0165 54.3152 51.5834 54.1275C51.472 54.079 51.3621 54.0281 51.2514 53.978C50.9187 53.8293 50.5907 53.6751 50.2675 53.5152C50.2222 53.493 50.1768 53.4699 50.1306 53.4476V48.4037C50.176 48.426 50.2214 48.4491 50.2675 48.4721V48.4713Z" fill="#5552FF"/>
<path d="M79.7451 51.5058C79.9999 51.4278 80.2562 51.3523 80.5069 51.2688V53.3291C80.2554 53.4118 79.9999 53.4882 79.7451 53.5653V51.505V51.5058Z" fill="url(#paint26_linear_2107_49101)"/>
<path d="M81.4072 50.9523C81.658 50.8609 81.9111 50.7742 82.1579 50.678C82.1619 50.6764 82.1651 50.6748 82.169 50.6732V52.7335C82.169 52.7335 82.1619 52.7367 82.1579 52.7383C81.9111 52.8345 81.6572 52.9212 81.4072 53.0126V50.9523Z" fill="url(#paint27_linear_2107_49101)"/>
<path d="M78.0822 51.9757C78.3345 51.9113 78.5861 51.8453 78.8352 51.7769C78.8384 51.7761 78.8416 51.7753 78.8416 51.7753L78.8448 53.8349C78.8448 53.8349 78.8384 53.8365 78.8352 53.8373C78.5861 53.9064 78.3345 53.9716 78.0822 54.0361V51.9757Z" fill="url(#paint28_linear_2107_49101)"/>
<path d="M61.4591 52.8942C61.7122 52.9276 61.967 52.9562 62.2209 52.9848V55.0452C61.9662 55.0165 61.7122 54.9879 61.4591 54.9545V52.8942Z" fill="url(#paint29_linear_2107_49101)"/>
<path d="M53.1476 50.8768C53.3983 50.9698 53.6547 51.0565 53.9094 51.144V53.2043C53.6539 53.1168 53.3983 53.0301 53.1476 52.9371V50.8768Z" fill="url(#paint30_linear_2107_49101)"/>
<path d="M72.1954 55.0714C71.9407 55.0984 71.6883 55.1334 71.4336 55.1565V53.0961C71.6891 53.0731 71.9415 53.0381 72.1954 53.011V55.0714Z" fill="url(#paint31_linear_2107_49101)"/>
<path d="M59.797 52.6405C60.0501 52.6842 60.3049 52.7224 60.5588 52.7622V54.8225C60.3041 54.7827 60.0493 54.7454 59.797 54.7016V52.6413V52.6405Z" fill="url(#paint32_linear_2107_49101)"/>
<path d="M69.7706 53.2035C70.0246 53.19 70.2793 53.1804 70.5324 53.1629V55.2233C70.2785 55.2408 70.0246 55.2511 69.7706 55.2638V53.2035Z" fill="url(#paint33_linear_2107_49101)"/>
<path d="M63.1221 53.0818C63.1388 53.0834 63.1555 53.085 63.1722 53.0866C63.4086 53.1089 63.6467 53.1279 63.8839 53.1454V55.2058C63.6459 55.1875 63.4086 55.1684 63.1722 55.1469C63.1555 55.1453 63.1388 55.1437 63.1221 55.1422V53.0818Z" fill="url(#paint34_linear_2107_49101)"/>
<path d="M58.1349 52.3185C58.228 52.3391 58.3204 52.3598 58.4135 52.3797C58.5735 52.4131 58.7351 52.4433 58.8967 52.4743V54.5346C58.7351 54.5036 58.5735 54.4726 58.4135 54.4392C58.3204 54.4201 58.2272 54.3987 58.1349 54.378V52.3177V52.3185Z" fill="url(#paint35_linear_2107_49101)"/>
<path d="M56.4727 51.9216C56.5228 51.9351 56.573 51.9487 56.6231 51.9614C56.8078 52.0091 56.9925 52.056 57.1788 52.1013C57.1971 52.1061 57.2162 52.1101 57.2353 52.1141V54.1744C57.217 54.1696 57.1979 54.1657 57.1788 54.1617C56.9925 54.1164 56.8078 54.0694 56.6231 54.0217C56.573 54.009 56.5228 53.9947 56.4727 53.982V51.9216Z" fill="url(#paint36_linear_2107_49101)"/>
<path d="M54.8105 51.4445C55.0112 51.5073 55.2125 51.5686 55.4155 51.6282C55.4681 51.6433 55.5206 51.6584 55.5732 51.6735V53.7339C55.5206 53.7188 55.4681 53.7044 55.4155 53.6885C55.2125 53.6289 55.0112 53.5677 54.8105 53.5049V51.4445Z" fill="url(#paint37_linear_2107_49101)"/>
<path d="M52.2481 50.5213V52.5817C52.0451 52.499 51.8389 52.4194 51.6383 52.3336V50.2732C51.8389 50.3591 52.0451 50.4386 52.2481 50.5213Z" fill="url(#paint38_linear_2107_49101)"/>
<path d="M66.4464 53.2703C66.5388 53.2719 66.6311 53.2743 66.7234 53.2759C66.885 53.2782 67.0466 53.2814 67.2082 53.2822V55.3426C67.0466 55.3418 66.885 55.3378 66.7234 55.3362C66.6311 55.3346 66.5388 55.3322 66.4464 55.3306V53.2703Z" fill="url(#paint39_linear_2107_49101)"/>
<path d="M73.0957 52.9108C73.2931 52.8854 73.4945 52.8719 73.6911 52.8441C73.7469 52.8361 73.8026 52.8266 73.8575 52.8178V54.8781C73.8018 54.8861 73.7469 54.8964 73.6911 54.9044C73.4945 54.9322 73.2931 54.9457 73.0957 54.9712V52.9108Z" fill="url(#paint40_linear_2107_49101)"/>
<path d="M74.7579 52.6763C74.8272 52.6652 74.8972 52.6556 74.9665 52.6437C75.1162 52.6182 75.2634 52.588 75.4115 52.561C75.4481 52.5546 75.4839 52.5467 75.5198 52.5403V54.6007C75.4831 54.607 75.4473 54.615 75.4115 54.6213C75.2626 54.6484 75.1154 54.6786 74.9665 54.704C74.8972 54.716 74.8272 54.7255 74.7579 54.7366V52.6763Z" fill="url(#paint41_linear_2107_49101)"/>
<path d="M68.1085 53.2742C68.2582 53.2727 68.4078 53.2719 68.5583 53.2679C68.6626 53.2655 68.7669 53.2544 68.8711 53.2512V55.3115C68.7669 55.3147 68.6626 55.3258 68.5583 55.3282C68.4086 55.3322 68.259 55.3322 68.1085 55.3346V53.2742Z" fill="url(#paint42_linear_2107_49101)"/>
<path d="M76.42 52.3638C76.4973 52.3463 76.5753 52.3296 76.6525 52.3129C76.83 52.2747 77.0051 52.2334 77.1819 52.1936V54.2539C77.0059 54.2937 76.83 54.335 76.6525 54.3732C76.5753 54.3899 76.4973 54.4066 76.42 54.4241V52.3638Z" fill="url(#paint43_linear_2107_49101)"/>
<path d="M64.7842 53.2059C65.0063 53.2178 65.2292 53.2297 65.4521 53.2393C65.4839 53.2409 65.5149 53.2417 65.5468 53.2432V55.3036C65.5149 55.302 65.4839 55.3012 65.4521 55.2996C65.2292 55.2901 65.0071 55.2781 64.7842 55.2662V53.2059Z" fill="url(#paint44_linear_2107_49101)"/>
<path d="M67.4873 43.406C76.1676 43.3818 83.193 39.2908 83.179 34.2684C83.1649 29.2461 76.1168 25.1943 67.4364 25.2185C58.7561 25.2427 51.7307 29.3338 51.7448 34.3561C51.7588 39.3785 58.807 43.4302 67.4873 43.406Z" fill="#5552FF"/>
</g>
<path opacity="0.4" d="M37 46L37 28.1685C37 24.3 34.263 21.1773 30.8723 21.1773L21.0681 21.1773C21.0681 21.1773 16.0843 21.2705 16.166 21.1773L11.1277 21.1773C7.73702 21.1773 5 18.0545 5 14.186L5 3" stroke="url(#paint45_linear_2107_49101)" stroke-width="3" stroke-miterlimit="10" stroke-dasharray="3 3"/>
<path d="M30.14 67.7734C30.1279 65.6264 29.3002 63.5573 27.812 61.9541C26.3239 60.3508 24.2776 59.3234 22.0565 59.0644C19.8355 58.8055 17.5923 59.3327 15.7474 60.5473C13.9025 61.762 12.5825 63.5806 12.0349 65.6623C11.8401 65.6457 11.6421 65.6352 11.4425 65.6352C9.73386 65.6352 8.09518 66.2865 6.88697 67.446C5.67876 68.6054 5 70.1779 5 71.8176C5 73.4573 5.67876 75.0298 6.88697 76.1892C8.09518 77.3486 9.73386 78 11.4425 78H29.6702C31.0441 77.9969 32.3639 77.4859 33.3554 76.5733C34.347 75.6608 34.9341 74.4167 34.9948 73.0996C35.0555 71.7824 34.585 70.4935 33.6813 69.5005C32.7775 68.5075 31.5098 67.8868 30.1416 67.7674L30.14 67.7734Z" fill="#8380FF"/>
</g>
<defs>
<linearGradient id="paint0_linear_2107_49101" x1="5.5" y1="5.5" x2="82" y2="87.5" gradientUnits="userSpaceOnUse">
<stop stop-color="#5552FF"/>
<stop offset="1" stop-color="#5552FF" stop-opacity="0.3"/>
</linearGradient>
<linearGradient id="paint1_linear_2107_49101" x1="93.9992" y1="62.4547" x2="41" y2="62.4547" gradientUnits="userSpaceOnUse">
<stop stop-color="#4C6FBF"/>
<stop offset="1" stop-color="#8CA3D8"/>
</linearGradient>
<linearGradient id="paint2_linear_2107_49101" x1="93.9992" y1="62.2472" x2="41" y2="62.2472" gradientUnits="userSpaceOnUse">
<stop stop-color="white"/>
<stop offset="1" stop-color="#D1D0CF"/>
</linearGradient>
<linearGradient id="paint3_linear_2107_49101" x1="93.9235" y1="48.8177" x2="40.9999" y2="48.8177" gradientUnits="userSpaceOnUse">
<stop stop-color="#EBEBEB"/>
<stop offset="1" stop-color="#FBFAFB"/>
</linearGradient>
<linearGradient id="paint4_linear_2107_49101" x1="49.6021" y1="66.717" x2="89.5979" y2="66.9361" gradientUnits="userSpaceOnUse">
<stop stop-color="white"/>
<stop offset="1" stop-color="#D1D0CF"/>
</linearGradient>
<linearGradient id="paint5_linear_2107_49101" x1="49.6054" y1="66.1325" x2="89.601" y2="66.3516" gradientUnits="userSpaceOnUse">
<stop stop-color="white"/>
<stop offset="1" stop-color="#D1D0CF"/>
</linearGradient>
<linearGradient id="paint6_linear_2107_49101" x1="49.5989" y1="67.2139" x2="89.5947" y2="67.4331" gradientUnits="userSpaceOnUse">
<stop stop-color="white"/>
<stop offset="1" stop-color="#D1D0CF"/>
</linearGradient>
<linearGradient id="paint7_linear_2107_49101" x1="49.5934" y1="68.3686" x2="89.5883" y2="68.5877" gradientUnits="userSpaceOnUse">
<stop stop-color="white"/>
<stop offset="1" stop-color="#D1D0CF"/>
</linearGradient>
<linearGradient id="paint8_linear_2107_49101" x1="49.6037" y1="66.4848" x2="89.5995" y2="66.7039" gradientUnits="userSpaceOnUse">
<stop stop-color="white"/>
<stop offset="1" stop-color="#D1D0CF"/>
</linearGradient>
<linearGradient id="paint9_linear_2107_49101" x1="49.5926" y1="68.4282" x2="89.5884" y2="68.6481" gradientUnits="userSpaceOnUse">
<stop stop-color="white"/>
<stop offset="1" stop-color="#D1D0CF"/>
</linearGradient>
<linearGradient id="paint10_linear_2107_49101" x1="49.5942" y1="68.1388" x2="89.5899" y2="68.3587" gradientUnits="userSpaceOnUse">
<stop stop-color="white"/>
<stop offset="1" stop-color="#D1D0CF"/>
</linearGradient>
<linearGradient id="paint11_linear_2107_49101" x1="49.5926" y1="68.5666" x2="89.5875" y2="68.7857" gradientUnits="userSpaceOnUse">
<stop stop-color="white"/>
<stop offset="1" stop-color="#D1D0CF"/>
</linearGradient>
<linearGradient id="paint12_linear_2107_49101" x1="49.5926" y1="68.5339" x2="89.5876" y2="68.7531" gradientUnits="userSpaceOnUse">
<stop stop-color="white"/>
<stop offset="1" stop-color="#D1D0CF"/>
</linearGradient>
<linearGradient id="paint13_linear_2107_49101" x1="49.5966" y1="67.8437" x2="89.5916" y2="68.0629" gradientUnits="userSpaceOnUse">
<stop stop-color="white"/>
<stop offset="1" stop-color="#D1D0CF"/>
</linearGradient>
<linearGradient id="paint14_linear_2107_49101" x1="49.5981" y1="67.474" x2="89.5931" y2="67.6931" gradientUnits="userSpaceOnUse">
<stop stop-color="white"/>
<stop offset="1" stop-color="#D1D0CF"/>
</linearGradient>
<linearGradient id="paint15_linear_2107_49101" x1="49.6005" y1="67.0247" x2="89.5955" y2="67.2438" gradientUnits="userSpaceOnUse">
<stop stop-color="white"/>
<stop offset="1" stop-color="#D1D0CF"/>
</linearGradient>
<linearGradient id="paint16_linear_2107_49101" x1="49.6069" y1="65.8804" x2="89.6019" y2="66.0996" gradientUnits="userSpaceOnUse">
<stop stop-color="white"/>
<stop offset="1" stop-color="#D1D0CF"/>
</linearGradient>
<linearGradient id="paint17_linear_2107_49101" x1="49.5918" y1="68.6779" x2="89.5868" y2="68.897" gradientUnits="userSpaceOnUse">
<stop stop-color="white"/>
<stop offset="1" stop-color="#D1D0CF"/>
</linearGradient>
<linearGradient id="paint18_linear_2107_49101" x1="49.5941" y1="68.2302" x2="89.5891" y2="68.4493" gradientUnits="userSpaceOnUse">
<stop stop-color="white"/>
<stop offset="1" stop-color="#D1D0CF"/>
</linearGradient>
<linearGradient id="paint19_linear_2107_49101" x1="49.5958" y1="67.9646" x2="89.5908" y2="68.1838" gradientUnits="userSpaceOnUse">
<stop stop-color="white"/>
<stop offset="1" stop-color="#D1D0CF"/>
</linearGradient>
<linearGradient id="paint20_linear_2107_49101" x1="49.5918" y1="68.6556" x2="89.5867" y2="68.8748" gradientUnits="userSpaceOnUse">
<stop stop-color="white"/>
<stop offset="1" stop-color="#D1D0CF"/>
</linearGradient>
<linearGradient id="paint21_linear_2107_49101" x1="49.5974" y1="67.6259" x2="89.5923" y2="67.845" gradientUnits="userSpaceOnUse">
<stop stop-color="white"/>
<stop offset="1" stop-color="#D1D0CF"/>
</linearGradient>
<linearGradient id="paint22_linear_2107_49101" x1="49.5918" y1="68.6357" x2="89.5867" y2="68.8549" gradientUnits="userSpaceOnUse">
<stop stop-color="white"/>
<stop offset="1" stop-color="#D1D0CF"/>
</linearGradient>
<linearGradient id="paint23_linear_2107_49101" x1="1047.02" y1="47.9886" x2="1046.95" y2="47.9886" gradientUnits="userSpaceOnUse">
<stop stop-color="#4C6FBF"/>
<stop offset="1" stop-color="#8CA3D8"/>
</linearGradient>
<linearGradient id="paint24_linear_2107_49101" x1="1047.02" y1="47.7811" x2="1046.95" y2="47.7811" gradientUnits="userSpaceOnUse">
<stop stop-color="white"/>
<stop offset="1" stop-color="#D1D0CF"/>
</linearGradient>
<linearGradient id="paint25_linear_2107_49101" x1="1047.03" y1="34.3517" x2="1046.95" y2="34.3517" gradientUnits="userSpaceOnUse">
<stop stop-color="#EBEBEB"/>
<stop offset="1" stop-color="#FBFAFB"/>
</linearGradient>
<linearGradient id="paint26_linear_2107_49101" x1="49.602" y1="52.2509" x2="89.5978" y2="52.47" gradientUnits="userSpaceOnUse">
<stop stop-color="white"/>
<stop offset="1" stop-color="#D1D0CF"/>
</linearGradient>
<linearGradient id="paint27_linear_2107_49101" x1="49.6052" y1="51.6664" x2="89.6009" y2="51.8863" gradientUnits="userSpaceOnUse">
<stop stop-color="white"/>
<stop offset="1" stop-color="#D1D0CF"/>
</linearGradient>
<linearGradient id="paint28_linear_2107_49101" x1="49.5988" y1="52.7478" x2="89.5946" y2="52.967" gradientUnits="userSpaceOnUse">
<stop stop-color="white"/>
<stop offset="1" stop-color="#D1D0CF"/>
</linearGradient>
<linearGradient id="paint29_linear_2107_49101" x1="49.5933" y1="53.9025" x2="89.5881" y2="54.1216" gradientUnits="userSpaceOnUse">
<stop stop-color="white"/>
<stop offset="1" stop-color="#D1D0CF"/>
</linearGradient>
<linearGradient id="paint30_linear_2107_49101" x1="49.6036" y1="52.0187" x2="89.5993" y2="52.2386" gradientUnits="userSpaceOnUse">
<stop stop-color="white"/>
<stop offset="1" stop-color="#D1D0CF"/>
</linearGradient>
<linearGradient id="paint31_linear_2107_49101" x1="49.5924" y1="53.9621" x2="89.5882" y2="54.182" gradientUnits="userSpaceOnUse">
<stop stop-color="white"/>
<stop offset="1" stop-color="#D1D0CF"/>
</linearGradient>
<linearGradient id="paint32_linear_2107_49101" x1="49.5941" y1="53.6735" x2="89.5898" y2="53.8926" gradientUnits="userSpaceOnUse">
<stop stop-color="white"/>
<stop offset="1" stop-color="#D1D0CF"/>
</linearGradient>
<linearGradient id="paint33_linear_2107_49101" x1="49.5925" y1="54.1005" x2="89.5874" y2="54.3196" gradientUnits="userSpaceOnUse">
<stop stop-color="white"/>
<stop offset="1" stop-color="#D1D0CF"/>
</linearGradient>
<linearGradient id="paint34_linear_2107_49101" x1="49.5924" y1="54.0679" x2="89.5875" y2="54.2878" gradientUnits="userSpaceOnUse">
<stop stop-color="white"/>
<stop offset="1" stop-color="#D1D0CF"/>
</linearGradient>
<linearGradient id="paint35_linear_2107_49101" x1="49.5965" y1="53.3776" x2="89.5915" y2="53.5968" gradientUnits="userSpaceOnUse">
<stop stop-color="white"/>
<stop offset="1" stop-color="#D1D0CF"/>
</linearGradient>
<linearGradient id="paint36_linear_2107_49101" x1="49.598" y1="53.0079" x2="89.593" y2="53.2278" gradientUnits="userSpaceOnUse">
<stop stop-color="white"/>
<stop offset="1" stop-color="#D1D0CF"/>
</linearGradient>
<linearGradient id="paint37_linear_2107_49101" x1="49.6004" y1="52.5586" x2="89.5954" y2="52.7777" gradientUnits="userSpaceOnUse">
<stop stop-color="white"/>
<stop offset="1" stop-color="#D1D0CF"/>
</linearGradient>
<linearGradient id="paint38_linear_2107_49101" x1="49.6068" y1="51.4143" x2="89.6018" y2="51.6335" gradientUnits="userSpaceOnUse">
<stop stop-color="white"/>
<stop offset="1" stop-color="#D1D0CF"/>
</linearGradient>
<linearGradient id="paint39_linear_2107_49101" x1="49.5917" y1="54.2118" x2="89.5867" y2="54.4309" gradientUnits="userSpaceOnUse">
<stop stop-color="white"/>
<stop offset="1" stop-color="#D1D0CF"/>
</linearGradient>
<linearGradient id="paint40_linear_2107_49101" x1="49.594" y1="53.7641" x2="89.589" y2="53.9832" gradientUnits="userSpaceOnUse">
<stop stop-color="white"/>
<stop offset="1" stop-color="#D1D0CF"/>
</linearGradient>
<linearGradient id="paint41_linear_2107_49101" x1="49.5957" y1="53.4985" x2="89.5907" y2="53.7177" gradientUnits="userSpaceOnUse">
<stop stop-color="white"/>
<stop offset="1" stop-color="#D1D0CF"/>
</linearGradient>
<linearGradient id="paint42_linear_2107_49101" x1="49.5917" y1="54.1895" x2="89.5866" y2="54.4087" gradientUnits="userSpaceOnUse">
<stop stop-color="white"/>
<stop offset="1" stop-color="#D1D0CF"/>
</linearGradient>
<linearGradient id="paint43_linear_2107_49101" x1="49.5973" y1="53.1598" x2="89.5922" y2="53.3789" gradientUnits="userSpaceOnUse">
<stop stop-color="white"/>
<stop offset="1" stop-color="#D1D0CF"/>
</linearGradient>
<linearGradient id="paint44_linear_2107_49101" x1="49.5916" y1="54.1696" x2="89.5866" y2="54.3888" gradientUnits="userSpaceOnUse">
<stop stop-color="white"/>
<stop offset="1" stop-color="#D1D0CF"/>
</linearGradient>
<linearGradient id="paint45_linear_2107_49101" x1="4.86384" y1="21.1773" x2="37.1362" y2="21.1773" gradientUnits="userSpaceOnUse">
<stop stop-color="#C5D4FF"/>
<stop offset="1" stop-color="#DDB3FF"/>
</linearGradient>
<clipPath id="clip0_2107_49101">
<rect width="82" height="82" rx="10" fill="white"/>
</clipPath>
<clipPath id="clip1_2107_49101">
<rect width="53" height="57" fill="white" transform="translate(41 19)"/>
</clipPath>
</defs>
</svg>
