<svg width="24" height="24" viewBox="0 0 24 24" fill="none" xmlns="http://www.w3.org/2000/svg">
<path d="M16.5 3V5.25H7.5V3H1.5V9H7.5V6.75H12.7675C12.2718 7.3955 12.0021 8.18611 12 9V15C11.9993 15.5965 11.762 16.1684 11.3402 16.5902C10.9184 17.012 10.3465 17.2493 9.75 17.25H7.5V15H1.5V21H7.5V18.75H9.75C10.7442 18.7488 11.6973 18.3533 12.4003 17.6503C13.1033 16.9473 13.4988 15.9942 13.5 15V9C13.4998 8.70466 13.5578 8.41218 13.6707 8.13925C13.7836 7.86633 13.9491 7.61832 14.1578 7.40938C14.3666 7.20044 14.6144 7.03467 14.8872 6.92153C15.1601 6.8084 15.4525 6.75011 15.7478 6.75H16.5V9H22.5V3H16.5ZM6 7.5H3V4.5H6V7.5ZM6 19.5H3V16.5H6V19.5ZM21 7.5H18V4.5H21V7.5Z" fill="#AD7BFF"/>
</svg>
